<?xml version="1.0" encoding="utf-8" standalone="no"?>
<!DOCTYPE svg PUBLIC "-//W3C//DTD SVG 1.1//EN"
  "http://www.w3.org/Graphics/SVG/1.1/DTD/svg11.dtd">
<svg xmlns:xlink="http://www.w3.org/1999/xlink" width="648pt" height="504pt" viewBox="0 0 648 504" xmlns="http://www.w3.org/2000/svg" version="1.1">
 <metadata>
  <rdf:RDF xmlns:dc="http://purl.org/dc/elements/1.1/" xmlns:cc="http://creativecommons.org/ns#" xmlns:rdf="http://www.w3.org/1999/02/22-rdf-syntax-ns#">
   <cc:Work>
    <dc:type rdf:resource="http://purl.org/dc/dcmitype/StillImage"/>
    <dc:date>2025-05-03T20:20:52.763799</dc:date>
    <dc:format>image/svg+xml</dc:format>
    <dc:creator>
     <cc:Agent>
      <dc:title>Matplotlib v3.10.0, https://matplotlib.org/</dc:title>
     </cc:Agent>
    </dc:creator>
   </cc:Work>
  </rdf:RDF>
 </metadata>
 <defs>
  <style type="text/css">*{stroke-linejoin: round; stroke-linecap: butt}</style>
 </defs>
 <g id="figure_1">
  <g id="patch_1">
   <path d="M 0 504 
L 648 504 
L 648 0 
L 0 0 
z
" style="fill: #ffffff"/>
  </g>
  <g id="axes_1">
   <g id="patch_2">
    <path d="M 81 448.56 
L 583.2 448.56 
L 583.2 60.48 
L 81 60.48 
z
" style="fill: #ffffff"/>
   </g>
   <g id="PathCollection_1">
    <defs>
     <path id="m949c74ee72" d="M 0 5 
C 1.326016 5 2.597899 4.473168 3.535534 3.535534 
C 4.473168 2.597899 5 1.326016 5 0 
C 5 -1.326016 4.473168 -2.597899 3.535534 -3.535534 
C 2.597899 -4.473168 1.326016 -5 0 -5 
C -1.326016 -5 -2.597899 -4.473168 -3.535534 -3.535534 
C -4.473168 -2.597899 -5 -1.326016 -5 0 
C -5 1.326016 -4.473168 2.597899 -3.535534 3.535534 
C -2.597899 4.473168 -1.326016 5 0 5 
z
" style="stroke: #000000"/>
    </defs>
    <g clip-path="url(#pa47def1463)">
     <use xlink:href="#m949c74ee72" x="196.503026" y="155.49448" style="fill: #0000ff; stroke: #000000"/>
     <use xlink:href="#m949c74ee72" x="194.104807" y="146.2186" style="fill: #0000ff; stroke: #000000"/>
     <use xlink:href="#m949c74ee72" x="227.417266" y="101.584203" style="fill: #0000ff; stroke: #000000"/>
     <use xlink:href="#m949c74ee72" x="199.705118" y="195.460686" style="fill: #0000ff; stroke: #000000"/>
     <use xlink:href="#m949c74ee72" x="183.261456" y="159.358735" style="fill: #0000ff; stroke: #000000"/>
     <use xlink:href="#m949c74ee72" x="216.609494" y="194.248217" style="fill: #0000ff; stroke: #000000"/>
     <use xlink:href="#m949c74ee72" x="196.859765" y="132.718713" style="fill: #0000ff; stroke: #000000"/>
     <use xlink:href="#m949c74ee72" x="165.27831" y="143.530784" style="fill: #0000ff; stroke: #000000"/>
     <use xlink:href="#m949c74ee72" x="217.500713" y="211.850991" style="fill: #0000ff; stroke: #000000"/>
     <use xlink:href="#m949c74ee72" x="272.205803" y="125.685535" style="fill: #0000ff; stroke: #000000"/>
     <use xlink:href="#m949c74ee72" x="244.008806" y="107.270069" style="fill: #0000ff; stroke: #000000"/>
     <use xlink:href="#m949c74ee72" x="205.514334" y="157.010677" style="fill: #0000ff; stroke: #000000"/>
     <use xlink:href="#m949c74ee72" x="159.749298" y="172.20165" style="fill: #0000ff; stroke: #000000"/>
     <use xlink:href="#m949c74ee72" x="171.795045" y="137.937487" style="fill: #0000ff; stroke: #000000"/>
     <use xlink:href="#m949c74ee72" x="268.029177" y="156.749189" style="fill: #0000ff; stroke: #000000"/>
     <use xlink:href="#m949c74ee72" x="226.763457" y="204.828632" style="fill: #0000ff; stroke: #000000"/>
     <use xlink:href="#m949c74ee72" x="226.309074" y="119.176677" style="fill: #0000ff; stroke: #000000"/>
     <use xlink:href="#m949c74ee72" x="184.391412" y="165.380759" style="fill: #0000ff; stroke: #000000"/>
     <use xlink:href="#m949c74ee72" x="221.807487" y="210.978429" style="fill: #0000ff; stroke: #000000"/>
     <use xlink:href="#m949c74ee72" x="241.285076" y="144.328101" style="fill: #0000ff; stroke: #000000"/>
     <use xlink:href="#m949c74ee72" x="268.47953" y="165.897225" style="fill: #0000ff; stroke: #000000"/>
     <use xlink:href="#m949c74ee72" x="212.808361" y="100.75204" style="fill: #0000ff; stroke: #000000"/>
     <use xlink:href="#m949c74ee72" x="225.016589" y="141.523052" style="fill: #0000ff; stroke: #000000"/>
     <use xlink:href="#m949c74ee72" x="173.437486" y="187.100355" style="fill: #0000ff; stroke: #000000"/>
     <use xlink:href="#m949c74ee72" x="150.687421" y="167.27391" style="fill: #0000ff; stroke: #000000"/>
     <use xlink:href="#m949c74ee72" x="197.082516" y="164.25397" style="fill: #0000ff; stroke: #000000"/>
     <use xlink:href="#m949c74ee72" x="223.024781" y="209.527539" style="fill: #0000ff; stroke: #000000"/>
     <use xlink:href="#m949c74ee72" x="217.696252" y="119.392486" style="fill: #0000ff; stroke: #000000"/>
     <use xlink:href="#m949c74ee72" x="227.426108" y="169.864569" style="fill: #0000ff; stroke: #000000"/>
     <use xlink:href="#m949c74ee72" x="217.327353" y="159.039563" style="fill: #0000ff; stroke: #000000"/>
     <use xlink:href="#m949c74ee72" x="194.64259" y="133.634868" style="fill: #0000ff; stroke: #000000"/>
     <use xlink:href="#m949c74ee72" x="162.071856" y="162.84391" style="fill: #0000ff; stroke: #000000"/>
     <use xlink:href="#m949c74ee72" x="197.184719" y="116.625273" style="fill: #0000ff; stroke: #000000"/>
     <use xlink:href="#m949c74ee72" x="211.477593" y="118.301332" style="fill: #0000ff; stroke: #000000"/>
     <use xlink:href="#m949c74ee72" x="213.629564" y="182.768765" style="fill: #0000ff; stroke: #000000"/>
     <use xlink:href="#m949c74ee72" x="191.996566" y="91.755986" style="fill: #0000ff; stroke: #000000"/>
     <use xlink:href="#m949c74ee72" x="244.377285" y="187.870902" style="fill: #0000ff; stroke: #000000"/>
     <use xlink:href="#m949c74ee72" x="180.730909" y="193.859004" style="fill: #0000ff; stroke: #000000"/>
     <use xlink:href="#m949c74ee72" x="209.872681" y="159.105128" style="fill: #0000ff; stroke: #000000"/>
     <use xlink:href="#m949c74ee72" x="188.306051" y="159.93577" style="fill: #0000ff; stroke: #000000"/>
     <use xlink:href="#m949c74ee72" x="117.777717" y="123.982002" style="fill: #0000ff; stroke: #000000"/>
     <use xlink:href="#m949c74ee72" x="176.876345" y="139.859418" style="fill: #0000ff; stroke: #000000"/>
     <use xlink:href="#m949c74ee72" x="192.035841" y="158.810823" style="fill: #0000ff; stroke: #000000"/>
     <use xlink:href="#m949c74ee72" x="226.04503" y="161.731641" style="fill: #0000ff; stroke: #000000"/>
     <use xlink:href="#m949c74ee72" x="189.230315" y="130.557034" style="fill: #0000ff; stroke: #000000"/>
     <use xlink:href="#m949c74ee72" x="201.521704" y="174.779826" style="fill: #0000ff; stroke: #000000"/>
     <use xlink:href="#m949c74ee72" x="252.04377" y="120.561109" style="fill: #0000ff; stroke: #000000"/>
     <use xlink:href="#m949c74ee72" x="247.792361" y="139.405798" style="fill: #0000ff; stroke: #000000"/>
     <use xlink:href="#m949c74ee72" x="206.04693" y="138.518765" style="fill: #0000ff; stroke: #000000"/>
     <use xlink:href="#m949c74ee72" x="214.314022" y="157.024757" style="fill: #0000ff; stroke: #000000"/>
    </g>
   </g>
   <g id="PathCollection_2">
    <defs>
     <path id="m456a9afc6c" d="M -5 5 
L 5 5 
L 5 -5 
L -5 -5 
z
" style="stroke: #000000"/>
    </defs>
    <g clip-path="url(#pa47def1463)">
     <use xlink:href="#m456a9afc6c" x="516.884824" y="336.946975" style="fill: #ff0000; stroke: #000000"/>
     <use xlink:href="#m456a9afc6c" x="507.286168" y="310.581602" style="fill: #ff0000; stroke: #000000"/>
     <use xlink:href="#m456a9afc6c" x="485.418129" y="329.023494" style="fill: #ff0000; stroke: #000000"/>
     <use xlink:href="#m456a9afc6c" x="487.228728" y="344.034701" style="fill: #ff0000; stroke: #000000"/>
     <use xlink:href="#m456a9afc6c" x="420.022811" y="367.761298" style="fill: #ff0000; stroke: #000000"/>
     <use xlink:href="#m456a9afc6c" x="431.560449" y="411.204256" style="fill: #ff0000; stroke: #000000"/>
     <use xlink:href="#m456a9afc6c" x="452.042915" y="362.64171" style="fill: #ff0000; stroke: #000000"/>
     <use xlink:href="#m456a9afc6c" x="448.246404" y="379.978465" style="fill: #ff0000; stroke: #000000"/>
     <use xlink:href="#m456a9afc6c" x="479.267801" y="292.865347" style="fill: #ff0000; stroke: #000000"/>
     <use xlink:href="#m456a9afc6c" x="437.667691" y="354.815873" style="fill: #ff0000; stroke: #000000"/>
     <use xlink:href="#m456a9afc6c" x="479.193456" y="405.653196" style="fill: #ff0000; stroke: #000000"/>
     <use xlink:href="#m456a9afc6c" x="484.926551" y="408.867382" style="fill: #ff0000; stroke: #000000"/>
     <use xlink:href="#m456a9afc6c" x="469.978075" y="360.474483" style="fill: #ff0000; stroke: #000000"/>
     <use xlink:href="#m456a9afc6c" x="506.145021" y="398.347663" style="fill: #ff0000; stroke: #000000"/>
     <use xlink:href="#m456a9afc6c" x="512.483446" y="356.995543" style="fill: #ff0000; stroke: #000000"/>
     <use xlink:href="#m456a9afc6c" x="486.610568" y="345.453392" style="fill: #ff0000; stroke: #000000"/>
     <use xlink:href="#m456a9afc6c" x="474.217047" y="359.235809" style="fill: #ff0000; stroke: #000000"/>
     <use xlink:href="#m456a9afc6c" x="496.248491" y="360.617185" style="fill: #ff0000; stroke: #000000"/>
     <use xlink:href="#m456a9afc6c" x="467.319198" y="284.8297" style="fill: #ff0000; stroke: #000000"/>
     <use xlink:href="#m456a9afc6c" x="498.635936" y="301.397013" style="fill: #ff0000; stroke: #000000"/>
     <use xlink:href="#m456a9afc6c" x="483.421871" y="357.854492" style="fill: #ff0000; stroke: #000000"/>
     <use xlink:href="#m456a9afc6c" x="506.971978" y="408.402168" style="fill: #ff0000; stroke: #000000"/>
     <use xlink:href="#m456a9afc6c" x="441.206105" y="345.288826" style="fill: #ff0000; stroke: #000000"/>
     <use xlink:href="#m456a9afc6c" x="494.457271" y="372.183469" style="fill: #ff0000; stroke: #000000"/>
     <use xlink:href="#m456a9afc6c" x="468.027857" y="393.479515" style="fill: #ff0000; stroke: #000000"/>
     <use xlink:href="#m456a9afc6c" x="433.239249" y="349.371312" style="fill: #ff0000; stroke: #000000"/>
     <use xlink:href="#m456a9afc6c" x="477.530852" y="324.444961" style="fill: #ff0000; stroke: #000000"/>
     <use xlink:href="#m456a9afc6c" x="490.211274" y="352.366584" style="fill: #ff0000; stroke: #000000"/>
     <use xlink:href="#m456a9afc6c" x="500.063288" y="396.714121" style="fill: #ff0000; stroke: #000000"/>
     <use xlink:href="#m456a9afc6c" x="486.524787" y="372.234043" style="fill: #ff0000; stroke: #000000"/>
     <use xlink:href="#m456a9afc6c" x="444.338362" y="395.420944" style="fill: #ff0000; stroke: #000000"/>
     <use xlink:href="#m456a9afc6c" x="468.834221" y="347.574604" style="fill: #ff0000; stroke: #000000"/>
     <use xlink:href="#m456a9afc6c" x="406.484647" y="370.734921" style="fill: #ff0000; stroke: #000000"/>
     <use xlink:href="#m456a9afc6c" x="519.663172" y="395.573322" style="fill: #ff0000; stroke: #000000"/>
     <use xlink:href="#m456a9afc6c" x="444.546413" y="365.097769" style="fill: #ff0000; stroke: #000000"/>
     <use xlink:href="#m456a9afc6c" x="546.422283" y="364.44558" style="fill: #ff0000; stroke: #000000"/>
     <use xlink:href="#m456a9afc6c" x="417.933108" y="364.131067" style="fill: #ff0000; stroke: #000000"/>
     <use xlink:href="#m456a9afc6c" x="486.265227" y="359.070164" style="fill: #ff0000; stroke: #000000"/>
     <use xlink:href="#m456a9afc6c" x="440.623007" y="387.617193" style="fill: #ff0000; stroke: #000000"/>
     <use xlink:href="#m456a9afc6c" x="545.671599" y="355.086081" style="fill: #ff0000; stroke: #000000"/>
     <use xlink:href="#m456a9afc6c" x="519.083086" y="346.388226" style="fill: #ff0000; stroke: #000000"/>
     <use xlink:href="#m456a9afc6c" x="460.630871" y="343.120956" style="fill: #ff0000; stroke: #000000"/>
     <use xlink:href="#m456a9afc6c" x="471.120951" y="357.268584" style="fill: #ff0000; stroke: #000000"/>
     <use xlink:href="#m456a9afc6c" x="480.717621" y="385.652371" style="fill: #ff0000; stroke: #000000"/>
     <use xlink:href="#m456a9afc6c" x="443.238347" y="321.429946" style="fill: #ff0000; stroke: #000000"/>
     <use xlink:href="#m456a9afc6c" x="487.831208" y="392.247718" style="fill: #ff0000; stroke: #000000"/>
     <use xlink:href="#m456a9afc6c" x="437.983566" y="355.093603" style="fill: #ff0000; stroke: #000000"/>
     <use xlink:href="#m456a9afc6c" x="475.776052" y="406.457231" style="fill: #ff0000; stroke: #000000"/>
     <use xlink:href="#m456a9afc6c" x="528.644244" y="413.749947" style="fill: #ff0000; stroke: #000000"/>
     <use xlink:href="#m456a9afc6c" x="445.909532" y="417.284014" style="fill: #ff0000; stroke: #000000"/>
    </g>
   </g>
   <g id="PathCollection_3">
    <defs>
     <path id="m09fc4762f9" d="M -0 7.071068 
L 7.071068 0 
L 0 -7.071068 
L -7.071068 -0 
z
" style="stroke: #000000"/>
    </defs>
    <g clip-path="url(#pa47def1463)">
     <use xlink:href="#m09fc4762f9" x="159.297653" y="306.514556" style="fill: #008000; stroke: #000000"/>
    </g>
   </g>
   <g id="matplotlib.axis_1">
    <g id="xtick_1">
     <g id="line2d_1">
      <path d="M 85.742219 448.56 
L 85.742219 60.48 
" clip-path="url(#pa47def1463)" style="fill: none; stroke: #b0b0b0; stroke-width: 0.8; stroke-linecap: square"/>
     </g>
     <g id="line2d_2">
      <defs>
       <path id="mdd77e55305" d="M 0 0 
L 0 3.5 
" style="stroke: #000000; stroke-width: 0.8"/>
      </defs>
      <g>
       <use xlink:href="#mdd77e55305" x="85.742219" y="448.56" style="stroke: #000000; stroke-width: 0.8"/>
      </g>
     </g>
     <g id="text_1">
      <!-- −6 -->
      <g transform="translate(78.371125 463.158437) scale(0.1 -0.1)">
       <defs>
        <path id="DejaVuSans-2212" d="M 678 2272 
L 4684 2272 
L 4684 1741 
L 678 1741 
L 678 2272 
z
" transform="scale(0.015625)"/>
        <path id="DejaVuSans-36" d="M 2113 2584 
Q 1688 2584 1439 2293 
Q 1191 2003 1191 1497 
Q 1191 994 1439 701 
Q 1688 409 2113 409 
Q 2538 409 2786 701 
Q 3034 994 3034 1497 
Q 3034 2003 2786 2293 
Q 2538 2584 2113 2584 
z
M 3366 4563 
L 3366 3988 
Q 3128 4100 2886 4159 
Q 2644 4219 2406 4219 
Q 1781 4219 1451 3797 
Q 1122 3375 1075 2522 
Q 1259 2794 1537 2939 
Q 1816 3084 2150 3084 
Q 2853 3084 3261 2657 
Q 3669 2231 3669 1497 
Q 3669 778 3244 343 
Q 2819 -91 2113 -91 
Q 1303 -91 875 529 
Q 447 1150 447 2328 
Q 447 3434 972 4092 
Q 1497 4750 2381 4750 
Q 2619 4750 2861 4703 
Q 3103 4656 3366 4563 
z
" transform="scale(0.015625)"/>
       </defs>
       <use xlink:href="#DejaVuSans-2212"/>
       <use xlink:href="#DejaVuSans-36" transform="translate(83.789062 0)"/>
      </g>
     </g>
    </g>
    <g id="xtick_2">
     <g id="line2d_3">
      <path d="M 159.297653 448.56 
L 159.297653 60.48 
" clip-path="url(#pa47def1463)" style="fill: none; stroke: #b0b0b0; stroke-width: 0.8; stroke-linecap: square"/>
     </g>
     <g id="line2d_4">
      <g>
       <use xlink:href="#mdd77e55305" x="159.297653" y="448.56" style="stroke: #000000; stroke-width: 0.8"/>
      </g>
     </g>
     <g id="text_2">
      <!-- −4 -->
      <g transform="translate(151.926559 463.158437) scale(0.1 -0.1)">
       <defs>
        <path id="DejaVuSans-34" d="M 2419 4116 
L 825 1625 
L 2419 1625 
L 2419 4116 
z
M 2253 4666 
L 3047 4666 
L 3047 1625 
L 3713 1625 
L 3713 1100 
L 3047 1100 
L 3047 0 
L 2419 0 
L 2419 1100 
L 313 1100 
L 313 1709 
L 2253 4666 
z
" transform="scale(0.015625)"/>
       </defs>
       <use xlink:href="#DejaVuSans-2212"/>
       <use xlink:href="#DejaVuSans-34" transform="translate(83.789062 0)"/>
      </g>
     </g>
    </g>
    <g id="xtick_3">
     <g id="line2d_5">
      <path d="M 232.853087 448.56 
L 232.853087 60.48 
" clip-path="url(#pa47def1463)" style="fill: none; stroke: #b0b0b0; stroke-width: 0.8; stroke-linecap: square"/>
     </g>
     <g id="line2d_6">
      <g>
       <use xlink:href="#mdd77e55305" x="232.853087" y="448.56" style="stroke: #000000; stroke-width: 0.8"/>
      </g>
     </g>
     <g id="text_3">
      <!-- −2 -->
      <g transform="translate(225.481993 463.158437) scale(0.1 -0.1)">
       <defs>
        <path id="DejaVuSans-32" d="M 1228 531 
L 3431 531 
L 3431 0 
L 469 0 
L 469 531 
Q 828 903 1448 1529 
Q 2069 2156 2228 2338 
Q 2531 2678 2651 2914 
Q 2772 3150 2772 3378 
Q 2772 3750 2511 3984 
Q 2250 4219 1831 4219 
Q 1534 4219 1204 4116 
Q 875 4013 500 3803 
L 500 4441 
Q 881 4594 1212 4672 
Q 1544 4750 1819 4750 
Q 2544 4750 2975 4387 
Q 3406 4025 3406 3419 
Q 3406 3131 3298 2873 
Q 3191 2616 2906 2266 
Q 2828 2175 2409 1742 
Q 1991 1309 1228 531 
z
" transform="scale(0.015625)"/>
       </defs>
       <use xlink:href="#DejaVuSans-2212"/>
       <use xlink:href="#DejaVuSans-32" transform="translate(83.789062 0)"/>
      </g>
     </g>
    </g>
    <g id="xtick_4">
     <g id="line2d_7">
      <path d="M 306.408521 448.56 
L 306.408521 60.48 
" clip-path="url(#pa47def1463)" style="fill: none; stroke: #b0b0b0; stroke-width: 0.8; stroke-linecap: square"/>
     </g>
     <g id="line2d_8">
      <g>
       <use xlink:href="#mdd77e55305" x="306.408521" y="448.56" style="stroke: #000000; stroke-width: 0.8"/>
      </g>
     </g>
     <g id="text_4">
      <!-- 0 -->
      <g transform="translate(303.227271 463.158437) scale(0.1 -0.1)">
       <defs>
        <path id="DejaVuSans-30" d="M 2034 4250 
Q 1547 4250 1301 3770 
Q 1056 3291 1056 2328 
Q 1056 1369 1301 889 
Q 1547 409 2034 409 
Q 2525 409 2770 889 
Q 3016 1369 3016 2328 
Q 3016 3291 2770 3770 
Q 2525 4250 2034 4250 
z
M 2034 4750 
Q 2819 4750 3233 4129 
Q 3647 3509 3647 2328 
Q 3647 1150 3233 529 
Q 2819 -91 2034 -91 
Q 1250 -91 836 529 
Q 422 1150 422 2328 
Q 422 3509 836 4129 
Q 1250 4750 2034 4750 
z
" transform="scale(0.015625)"/>
       </defs>
       <use xlink:href="#DejaVuSans-30"/>
      </g>
     </g>
    </g>
    <g id="xtick_5">
     <g id="line2d_9">
      <path d="M 379.963955 448.56 
L 379.963955 60.48 
" clip-path="url(#pa47def1463)" style="fill: none; stroke: #b0b0b0; stroke-width: 0.8; stroke-linecap: square"/>
     </g>
     <g id="line2d_10">
      <g>
       <use xlink:href="#mdd77e55305" x="379.963955" y="448.56" style="stroke: #000000; stroke-width: 0.8"/>
      </g>
     </g>
     <g id="text_5">
      <!-- 2 -->
      <g transform="translate(376.782705 463.158437) scale(0.1 -0.1)">
       <use xlink:href="#DejaVuSans-32"/>
      </g>
     </g>
    </g>
    <g id="xtick_6">
     <g id="line2d_11">
      <path d="M 453.519389 448.56 
L 453.519389 60.48 
" clip-path="url(#pa47def1463)" style="fill: none; stroke: #b0b0b0; stroke-width: 0.8; stroke-linecap: square"/>
     </g>
     <g id="line2d_12">
      <g>
       <use xlink:href="#mdd77e55305" x="453.519389" y="448.56" style="stroke: #000000; stroke-width: 0.8"/>
      </g>
     </g>
     <g id="text_6">
      <!-- 4 -->
      <g transform="translate(450.338139 463.158437) scale(0.1 -0.1)">
       <use xlink:href="#DejaVuSans-34"/>
      </g>
     </g>
    </g>
    <g id="xtick_7">
     <g id="line2d_13">
      <path d="M 527.074823 448.56 
L 527.074823 60.48 
" clip-path="url(#pa47def1463)" style="fill: none; stroke: #b0b0b0; stroke-width: 0.8; stroke-linecap: square"/>
     </g>
     <g id="line2d_14">
      <g>
       <use xlink:href="#mdd77e55305" x="527.074823" y="448.56" style="stroke: #000000; stroke-width: 0.8"/>
      </g>
     </g>
     <g id="text_7">
      <!-- 6 -->
      <g transform="translate(523.893573 463.158437) scale(0.1 -0.1)">
       <use xlink:href="#DejaVuSans-36"/>
      </g>
     </g>
    </g>
    <g id="text_8">
     <!-- $x_1$ -->
     <g transform="translate(326.75 476.836563) scale(0.1 -0.1)">
      <defs>
       <path id="DejaVuSans-Oblique-78" d="M 3841 3500 
L 2234 1784 
L 3219 0 
L 2559 0 
L 1819 1388 
L 531 0 
L -166 0 
L 1556 1844 
L 641 3500 
L 1300 3500 
L 1972 2234 
L 3144 3500 
L 3841 3500 
z
" transform="scale(0.015625)"/>
       <path id="DejaVuSans-31" d="M 794 531 
L 1825 531 
L 1825 4091 
L 703 3866 
L 703 4441 
L 1819 4666 
L 2450 4666 
L 2450 531 
L 3481 531 
L 3481 0 
L 794 0 
L 794 531 
z
" transform="scale(0.015625)"/>
      </defs>
      <use xlink:href="#DejaVuSans-Oblique-78" transform="translate(0 0.3125)"/>
      <use xlink:href="#DejaVuSans-31" transform="translate(59.179688 -16.09375) scale(0.7)"/>
     </g>
    </g>
   </g>
   <g id="matplotlib.axis_2">
    <g id="ytick_1">
     <g id="line2d_15">
      <path d="M 81 431.618501 
L 583.2 431.618501 
" clip-path="url(#pa47def1463)" style="fill: none; stroke: #b0b0b0; stroke-width: 0.8; stroke-linecap: square"/>
     </g>
     <g id="line2d_16">
      <defs>
       <path id="m3b4cb3a6ef" d="M 0 0 
L -3.5 0 
" style="stroke: #000000; stroke-width: 0.8"/>
      </defs>
      <g>
       <use xlink:href="#m3b4cb3a6ef" x="81" y="431.618501" style="stroke: #000000; stroke-width: 0.8"/>
      </g>
     </g>
     <g id="text_9">
      <!-- 0 -->
      <g transform="translate(67.6375 435.41772) scale(0.1 -0.1)">
       <use xlink:href="#DejaVuSans-30"/>
      </g>
     </g>
    </g>
    <g id="ytick_2">
     <g id="line2d_17">
      <path d="M 81 369.066529 
L 583.2 369.066529 
" clip-path="url(#pa47def1463)" style="fill: none; stroke: #b0b0b0; stroke-width: 0.8; stroke-linecap: square"/>
     </g>
     <g id="line2d_18">
      <g>
       <use xlink:href="#m3b4cb3a6ef" x="81" y="369.066529" style="stroke: #000000; stroke-width: 0.8"/>
      </g>
     </g>
     <g id="text_10">
      <!-- 2 -->
      <g transform="translate(67.6375 372.865747) scale(0.1 -0.1)">
       <use xlink:href="#DejaVuSans-32"/>
      </g>
     </g>
    </g>
    <g id="ytick_3">
     <g id="line2d_19">
      <path d="M 81 306.514556 
L 583.2 306.514556 
" clip-path="url(#pa47def1463)" style="fill: none; stroke: #b0b0b0; stroke-width: 0.8; stroke-linecap: square"/>
     </g>
     <g id="line2d_20">
      <g>
       <use xlink:href="#m3b4cb3a6ef" x="81" y="306.514556" style="stroke: #000000; stroke-width: 0.8"/>
      </g>
     </g>
     <g id="text_11">
      <!-- 4 -->
      <g transform="translate(67.6375 310.313775) scale(0.1 -0.1)">
       <use xlink:href="#DejaVuSans-34"/>
      </g>
     </g>
    </g>
    <g id="ytick_4">
     <g id="line2d_21">
      <path d="M 81 243.962584 
L 583.2 243.962584 
" clip-path="url(#pa47def1463)" style="fill: none; stroke: #b0b0b0; stroke-width: 0.8; stroke-linecap: square"/>
     </g>
     <g id="line2d_22">
      <g>
       <use xlink:href="#m3b4cb3a6ef" x="81" y="243.962584" style="stroke: #000000; stroke-width: 0.8"/>
      </g>
     </g>
     <g id="text_12">
      <!-- 6 -->
      <g transform="translate(67.6375 247.761803) scale(0.1 -0.1)">
       <use xlink:href="#DejaVuSans-36"/>
      </g>
     </g>
    </g>
    <g id="ytick_5">
     <g id="line2d_23">
      <path d="M 81 181.410612 
L 583.2 181.410612 
" clip-path="url(#pa47def1463)" style="fill: none; stroke: #b0b0b0; stroke-width: 0.8; stroke-linecap: square"/>
     </g>
     <g id="line2d_24">
      <g>
       <use xlink:href="#m3b4cb3a6ef" x="81" y="181.410612" style="stroke: #000000; stroke-width: 0.8"/>
      </g>
     </g>
     <g id="text_13">
      <!-- 8 -->
      <g transform="translate(67.6375 185.209831) scale(0.1 -0.1)">
       <defs>
        <path id="DejaVuSans-38" d="M 2034 2216 
Q 1584 2216 1326 1975 
Q 1069 1734 1069 1313 
Q 1069 891 1326 650 
Q 1584 409 2034 409 
Q 2484 409 2743 651 
Q 3003 894 3003 1313 
Q 3003 1734 2745 1975 
Q 2488 2216 2034 2216 
z
M 1403 2484 
Q 997 2584 770 2862 
Q 544 3141 544 3541 
Q 544 4100 942 4425 
Q 1341 4750 2034 4750 
Q 2731 4750 3128 4425 
Q 3525 4100 3525 3541 
Q 3525 3141 3298 2862 
Q 3072 2584 2669 2484 
Q 3125 2378 3379 2068 
Q 3634 1759 3634 1313 
Q 3634 634 3220 271 
Q 2806 -91 2034 -91 
Q 1263 -91 848 271 
Q 434 634 434 1313 
Q 434 1759 690 2068 
Q 947 2378 1403 2484 
z
M 1172 3481 
Q 1172 3119 1398 2916 
Q 1625 2713 2034 2713 
Q 2441 2713 2670 2916 
Q 2900 3119 2900 3481 
Q 2900 3844 2670 4047 
Q 2441 4250 2034 4250 
Q 1625 4250 1398 4047 
Q 1172 3844 1172 3481 
z
" transform="scale(0.015625)"/>
       </defs>
       <use xlink:href="#DejaVuSans-38"/>
      </g>
     </g>
    </g>
    <g id="ytick_6">
     <g id="line2d_25">
      <path d="M 81 118.85864 
L 583.2 118.85864 
" clip-path="url(#pa47def1463)" style="fill: none; stroke: #b0b0b0; stroke-width: 0.8; stroke-linecap: square"/>
     </g>
     <g id="line2d_26">
      <g>
       <use xlink:href="#m3b4cb3a6ef" x="81" y="118.85864" style="stroke: #000000; stroke-width: 0.8"/>
      </g>
     </g>
     <g id="text_14">
      <!-- 10 -->
      <g transform="translate(61.275 122.657858) scale(0.1 -0.1)">
       <use xlink:href="#DejaVuSans-31"/>
       <use xlink:href="#DejaVuSans-30" transform="translate(63.623047 0)"/>
      </g>
     </g>
    </g>
    <g id="text_15">
     <!-- $x_2$ -->
     <g transform="translate(55.195312 259.87) rotate(-90) scale(0.1 -0.1)">
      <use xlink:href="#DejaVuSans-Oblique-78" transform="translate(0 0.3125)"/>
      <use xlink:href="#DejaVuSans-32" transform="translate(59.179688 -16.09375) scale(0.7)"/>
     </g>
    </g>
   </g>
   <g id="patch_3">
    <path d="M 81 448.56 
L 81 60.48 
" style="fill: none; stroke: #000000; stroke-width: 0.8; stroke-linejoin: miter; stroke-linecap: square"/>
   </g>
   <g id="patch_4">
    <path d="M 583.2 448.56 
L 583.2 60.48 
" style="fill: none; stroke: #000000; stroke-width: 0.8; stroke-linejoin: miter; stroke-linecap: square"/>
   </g>
   <g id="patch_5">
    <path d="M 81 448.56 
L 583.2 448.56 
" style="fill: none; stroke: #000000; stroke-width: 0.8; stroke-linejoin: miter; stroke-linecap: square"/>
   </g>
   <g id="patch_6">
    <path d="M 81 60.48 
L 583.2 60.48 
" style="fill: none; stroke: #000000; stroke-width: 0.8; stroke-linejoin: miter; stroke-linecap: square"/>
   </g>
   <g id="legend_1">
    <g id="patch_7">
     <path d="M 462.651563 112.514375 
L 576.2 112.514375 
Q 578.2 112.514375 578.2 110.514375 
L 578.2 67.48 
Q 578.2 65.48 576.2 65.48 
L 462.651563 65.48 
Q 460.651563 65.48 460.651563 67.48 
L 460.651563 110.514375 
Q 460.651563 112.514375 462.651563 112.514375 
z
" style="fill: #ffffff; opacity: 0.8; stroke: #cccccc; stroke-linejoin: miter"/>
    </g>
    <g id="PathCollection_4">
     <g>
      <use xlink:href="#m949c74ee72" x="474.651563" y="74.453438" style="fill: #0000ff; stroke: #000000"/>
     </g>
    </g>
    <g id="text_16">
     <!-- Class -1 -->
     <g transform="translate(492.651563 77.078438) scale(0.1 -0.1)">
      <defs>
       <path id="DejaVuSans-43" d="M 4122 4306 
L 4122 3641 
Q 3803 3938 3442 4084 
Q 3081 4231 2675 4231 
Q 1875 4231 1450 3742 
Q 1025 3253 1025 2328 
Q 1025 1406 1450 917 
Q 1875 428 2675 428 
Q 3081 428 3442 575 
Q 3803 722 4122 1019 
L 4122 359 
Q 3791 134 3420 21 
Q 3050 -91 2638 -91 
Q 1578 -91 968 557 
Q 359 1206 359 2328 
Q 359 3453 968 4101 
Q 1578 4750 2638 4750 
Q 3056 4750 3426 4639 
Q 3797 4528 4122 4306 
z
" transform="scale(0.015625)"/>
       <path id="DejaVuSans-6c" d="M 603 4863 
L 1178 4863 
L 1178 0 
L 603 0 
L 603 4863 
z
" transform="scale(0.015625)"/>
       <path id="DejaVuSans-61" d="M 2194 1759 
Q 1497 1759 1228 1600 
Q 959 1441 959 1056 
Q 959 750 1161 570 
Q 1363 391 1709 391 
Q 2188 391 2477 730 
Q 2766 1069 2766 1631 
L 2766 1759 
L 2194 1759 
z
M 3341 1997 
L 3341 0 
L 2766 0 
L 2766 531 
Q 2569 213 2275 61 
Q 1981 -91 1556 -91 
Q 1019 -91 701 211 
Q 384 513 384 1019 
Q 384 1609 779 1909 
Q 1175 2209 1959 2209 
L 2766 2209 
L 2766 2266 
Q 2766 2663 2505 2880 
Q 2244 3097 1772 3097 
Q 1472 3097 1187 3025 
Q 903 2953 641 2809 
L 641 3341 
Q 956 3463 1253 3523 
Q 1550 3584 1831 3584 
Q 2591 3584 2966 3190 
Q 3341 2797 3341 1997 
z
" transform="scale(0.015625)"/>
       <path id="DejaVuSans-73" d="M 2834 3397 
L 2834 2853 
Q 2591 2978 2328 3040 
Q 2066 3103 1784 3103 
Q 1356 3103 1142 2972 
Q 928 2841 928 2578 
Q 928 2378 1081 2264 
Q 1234 2150 1697 2047 
L 1894 2003 
Q 2506 1872 2764 1633 
Q 3022 1394 3022 966 
Q 3022 478 2636 193 
Q 2250 -91 1575 -91 
Q 1294 -91 989 -36 
Q 684 19 347 128 
L 347 722 
Q 666 556 975 473 
Q 1284 391 1588 391 
Q 1994 391 2212 530 
Q 2431 669 2431 922 
Q 2431 1156 2273 1281 
Q 2116 1406 1581 1522 
L 1381 1569 
Q 847 1681 609 1914 
Q 372 2147 372 2553 
Q 372 3047 722 3315 
Q 1072 3584 1716 3584 
Q 2034 3584 2315 3537 
Q 2597 3491 2834 3397 
z
" transform="scale(0.015625)"/>
       <path id="DejaVuSans-20" transform="scale(0.015625)"/>
       <path id="DejaVuSans-2d" d="M 313 2009 
L 1997 2009 
L 1997 1497 
L 313 1497 
L 313 2009 
z
" transform="scale(0.015625)"/>
      </defs>
      <use xlink:href="#DejaVuSans-43"/>
      <use xlink:href="#DejaVuSans-6c" transform="translate(69.824219 0)"/>
      <use xlink:href="#DejaVuSans-61" transform="translate(97.607422 0)"/>
      <use xlink:href="#DejaVuSans-73" transform="translate(158.886719 0)"/>
      <use xlink:href="#DejaVuSans-73" transform="translate(210.986328 0)"/>
      <use xlink:href="#DejaVuSans-20" transform="translate(263.085938 0)"/>
      <use xlink:href="#DejaVuSans-2d" transform="translate(294.873047 0)"/>
      <use xlink:href="#DejaVuSans-31" transform="translate(330.957031 0)"/>
     </g>
    </g>
    <g id="PathCollection_5">
     <g>
      <use xlink:href="#m456a9afc6c" x="474.651563" y="89.131563" style="fill: #ff0000; stroke: #000000"/>
     </g>
    </g>
    <g id="text_17">
     <!-- Class 1 -->
     <g transform="translate(492.651563 91.756563) scale(0.1 -0.1)">
      <use xlink:href="#DejaVuSans-43"/>
      <use xlink:href="#DejaVuSans-6c" transform="translate(69.824219 0)"/>
      <use xlink:href="#DejaVuSans-61" transform="translate(97.607422 0)"/>
      <use xlink:href="#DejaVuSans-73" transform="translate(158.886719 0)"/>
      <use xlink:href="#DejaVuSans-73" transform="translate(210.986328 0)"/>
      <use xlink:href="#DejaVuSans-20" transform="translate(263.085938 0)"/>
      <use xlink:href="#DejaVuSans-31" transform="translate(294.873047 0)"/>
     </g>
    </g>
    <g id="PathCollection_6">
     <g>
      <use xlink:href="#m09fc4762f9" x="474.651563" y="103.809687" style="fill: #008000; stroke: #000000"/>
     </g>
    </g>
    <g id="text_18">
     <!-- dangerous point -->
     <g transform="translate(492.651563 106.434687) scale(0.1 -0.1)">
      <defs>
       <path id="DejaVuSans-64" d="M 2906 2969 
L 2906 4863 
L 3481 4863 
L 3481 0 
L 2906 0 
L 2906 525 
Q 2725 213 2448 61 
Q 2172 -91 1784 -91 
Q 1150 -91 751 415 
Q 353 922 353 1747 
Q 353 2572 751 3078 
Q 1150 3584 1784 3584 
Q 2172 3584 2448 3432 
Q 2725 3281 2906 2969 
z
M 947 1747 
Q 947 1113 1208 752 
Q 1469 391 1925 391 
Q 2381 391 2643 752 
Q 2906 1113 2906 1747 
Q 2906 2381 2643 2742 
Q 2381 3103 1925 3103 
Q 1469 3103 1208 2742 
Q 947 2381 947 1747 
z
" transform="scale(0.015625)"/>
       <path id="DejaVuSans-6e" d="M 3513 2113 
L 3513 0 
L 2938 0 
L 2938 2094 
Q 2938 2591 2744 2837 
Q 2550 3084 2163 3084 
Q 1697 3084 1428 2787 
Q 1159 2491 1159 1978 
L 1159 0 
L 581 0 
L 581 3500 
L 1159 3500 
L 1159 2956 
Q 1366 3272 1645 3428 
Q 1925 3584 2291 3584 
Q 2894 3584 3203 3211 
Q 3513 2838 3513 2113 
z
" transform="scale(0.015625)"/>
       <path id="DejaVuSans-67" d="M 2906 1791 
Q 2906 2416 2648 2759 
Q 2391 3103 1925 3103 
Q 1463 3103 1205 2759 
Q 947 2416 947 1791 
Q 947 1169 1205 825 
Q 1463 481 1925 481 
Q 2391 481 2648 825 
Q 2906 1169 2906 1791 
z
M 3481 434 
Q 3481 -459 3084 -895 
Q 2688 -1331 1869 -1331 
Q 1566 -1331 1297 -1286 
Q 1028 -1241 775 -1147 
L 775 -588 
Q 1028 -725 1275 -790 
Q 1522 -856 1778 -856 
Q 2344 -856 2625 -561 
Q 2906 -266 2906 331 
L 2906 616 
Q 2728 306 2450 153 
Q 2172 0 1784 0 
Q 1141 0 747 490 
Q 353 981 353 1791 
Q 353 2603 747 3093 
Q 1141 3584 1784 3584 
Q 2172 3584 2450 3431 
Q 2728 3278 2906 2969 
L 2906 3500 
L 3481 3500 
L 3481 434 
z
" transform="scale(0.015625)"/>
       <path id="DejaVuSans-65" d="M 3597 1894 
L 3597 1613 
L 953 1613 
Q 991 1019 1311 708 
Q 1631 397 2203 397 
Q 2534 397 2845 478 
Q 3156 559 3463 722 
L 3463 178 
Q 3153 47 2828 -22 
Q 2503 -91 2169 -91 
Q 1331 -91 842 396 
Q 353 884 353 1716 
Q 353 2575 817 3079 
Q 1281 3584 2069 3584 
Q 2775 3584 3186 3129 
Q 3597 2675 3597 1894 
z
M 3022 2063 
Q 3016 2534 2758 2815 
Q 2500 3097 2075 3097 
Q 1594 3097 1305 2825 
Q 1016 2553 972 2059 
L 3022 2063 
z
" transform="scale(0.015625)"/>
       <path id="DejaVuSans-72" d="M 2631 2963 
Q 2534 3019 2420 3045 
Q 2306 3072 2169 3072 
Q 1681 3072 1420 2755 
Q 1159 2438 1159 1844 
L 1159 0 
L 581 0 
L 581 3500 
L 1159 3500 
L 1159 2956 
Q 1341 3275 1631 3429 
Q 1922 3584 2338 3584 
Q 2397 3584 2469 3576 
Q 2541 3569 2628 3553 
L 2631 2963 
z
" transform="scale(0.015625)"/>
       <path id="DejaVuSans-6f" d="M 1959 3097 
Q 1497 3097 1228 2736 
Q 959 2375 959 1747 
Q 959 1119 1226 758 
Q 1494 397 1959 397 
Q 2419 397 2687 759 
Q 2956 1122 2956 1747 
Q 2956 2369 2687 2733 
Q 2419 3097 1959 3097 
z
M 1959 3584 
Q 2709 3584 3137 3096 
Q 3566 2609 3566 1747 
Q 3566 888 3137 398 
Q 2709 -91 1959 -91 
Q 1206 -91 779 398 
Q 353 888 353 1747 
Q 353 2609 779 3096 
Q 1206 3584 1959 3584 
z
" transform="scale(0.015625)"/>
       <path id="DejaVuSans-75" d="M 544 1381 
L 544 3500 
L 1119 3500 
L 1119 1403 
Q 1119 906 1312 657 
Q 1506 409 1894 409 
Q 2359 409 2629 706 
Q 2900 1003 2900 1516 
L 2900 3500 
L 3475 3500 
L 3475 0 
L 2900 0 
L 2900 538 
Q 2691 219 2414 64 
Q 2138 -91 1772 -91 
Q 1169 -91 856 284 
Q 544 659 544 1381 
z
M 1991 3584 
L 1991 3584 
z
" transform="scale(0.015625)"/>
       <path id="DejaVuSans-70" d="M 1159 525 
L 1159 -1331 
L 581 -1331 
L 581 3500 
L 1159 3500 
L 1159 2969 
Q 1341 3281 1617 3432 
Q 1894 3584 2278 3584 
Q 2916 3584 3314 3078 
Q 3713 2572 3713 1747 
Q 3713 922 3314 415 
Q 2916 -91 2278 -91 
Q 1894 -91 1617 61 
Q 1341 213 1159 525 
z
M 3116 1747 
Q 3116 2381 2855 2742 
Q 2594 3103 2138 3103 
Q 1681 3103 1420 2742 
Q 1159 2381 1159 1747 
Q 1159 1113 1420 752 
Q 1681 391 2138 391 
Q 2594 391 2855 752 
Q 3116 1113 3116 1747 
z
" transform="scale(0.015625)"/>
       <path id="DejaVuSans-69" d="M 603 3500 
L 1178 3500 
L 1178 0 
L 603 0 
L 603 3500 
z
M 603 4863 
L 1178 4863 
L 1178 4134 
L 603 4134 
L 603 4863 
z
" transform="scale(0.015625)"/>
       <path id="DejaVuSans-74" d="M 1172 4494 
L 1172 3500 
L 2356 3500 
L 2356 3053 
L 1172 3053 
L 1172 1153 
Q 1172 725 1289 603 
Q 1406 481 1766 481 
L 2356 481 
L 2356 0 
L 1766 0 
Q 1100 0 847 248 
Q 594 497 594 1153 
L 594 3053 
L 172 3053 
L 172 3500 
L 594 3500 
L 594 4494 
L 1172 4494 
z
" transform="scale(0.015625)"/>
      </defs>
      <use xlink:href="#DejaVuSans-64"/>
      <use xlink:href="#DejaVuSans-61" transform="translate(63.476562 0)"/>
      <use xlink:href="#DejaVuSans-6e" transform="translate(124.755859 0)"/>
      <use xlink:href="#DejaVuSans-67" transform="translate(188.134766 0)"/>
      <use xlink:href="#DejaVuSans-65" transform="translate(251.611328 0)"/>
      <use xlink:href="#DejaVuSans-72" transform="translate(313.134766 0)"/>
      <use xlink:href="#DejaVuSans-6f" transform="translate(351.998047 0)"/>
      <use xlink:href="#DejaVuSans-75" transform="translate(413.179688 0)"/>
      <use xlink:href="#DejaVuSans-73" transform="translate(476.558594 0)"/>
      <use xlink:href="#DejaVuSans-20" transform="translate(528.658203 0)"/>
      <use xlink:href="#DejaVuSans-70" transform="translate(560.445312 0)"/>
      <use xlink:href="#DejaVuSans-6f" transform="translate(623.921875 0)"/>
      <use xlink:href="#DejaVuSans-69" transform="translate(685.103516 0)"/>
      <use xlink:href="#DejaVuSans-6e" transform="translate(712.886719 0)"/>
      <use xlink:href="#DejaVuSans-74" transform="translate(776.265625 0)"/>
     </g>
    </g>
   </g>
  </g>
 </g>
 <defs>
  <clipPath id="pa47def1463">
   <rect x="81" y="60.48" width="502.2" height="388.08"/>
  </clipPath>
 </defs>
</svg>
