<?xml version="1.0" encoding="UTF-8" standalone="no"?>
<svg
   fill="none"
   version="1.1"
   viewBox="0 0 466.70378 516.55397"
   id="svg27"
   sodipodi:docname="distance.svg"
   width="466.7038"
   height="516.55396"
   inkscape:version="1.4 (e7c3feb1, 2024-10-09)"
   xmlns:inkscape="http://www.inkscape.org/namespaces/inkscape"
   xmlns:sodipodi="http://sodipodi.sourceforge.net/DTD/sodipodi-0.dtd"
   xmlns="http://www.w3.org/2000/svg"
   xmlns:svg="http://www.w3.org/2000/svg">
  <defs
     id="defs27" />
  <sodipodi:namedview
     id="namedview27"
     pagecolor="#ffffff"
     bordercolor="#000000"
     borderopacity="0.25"
     inkscape:showpageshadow="2"
     inkscape:pageopacity="0.0"
     inkscape:pagecheckerboard="0"
     inkscape:deskcolor="#d1d1d1"
     inkscape:zoom="1.2963254"
     inkscape:cx="233.3519"
     inkscape:cy="258.42276"
     inkscape:window-width="1200"
     inkscape:window-height="937"
     inkscape:window-x="709"
     inkscape:window-y="40"
     inkscape:window-maximized="0"
     inkscape:current-layer="svg27" />
  <rect
     style="fill:#ffffff;fill-opacity:1"
     id="rect1"
     width="527.94446"
     height="562.12793"
     x="-16.4587"
     y="-12.660539" />
  <path
     class="real"
     d="M 6.8230851,457.24698 H 464.12309 M 45.093085,42.536977 V 513.90698"
     id="path1"
     style="fill:none;stroke:#6487ce;stroke-width:3" />
  <path
     d="m 457.12309,452.24698 7,5 -7,5"
     id="path2"
     style="fill:none;stroke:#6487ce;stroke-width:3" />
  <path
     d="m 40.093085,49.536977 5,-7 5,7"
     id="path3"
     style="fill:none;stroke:#6487ce;stroke-width:3" />
  <path
     d="m 76.093085,452.24698 v 10 m 31.000005,-10 v 10 m 31,-10 v 10 m 31,-10 v 10 m 31,-10 v 10 m 31,-10 v 10 m 31,-10 v 10 m 31,-10 v 10 m 31,-10 v 10 m 31,-10 v 10 m 31,-10 v 10 m 31,-10 v 10 m 31,-10 v 10 m -434.000005,-10 v 10 m 26,-36 h 10 m -10,-31 h 10 m -10,-31 h 10 m -10,-31 h 10 m -10,-31 h 10 m -10,-31 h 10 m -10,-31 h 10 m -10,-31 h 10 m -10,-31 h 10 m -10,-31 h 10 m -10,-31 h 10 m -10,-31.000003 h 10 m -10,403.000003 h 10"
     id="path4"
     style="fill:none;stroke:#6487ce;stroke-width:3" />
  <path
     class="connection real"
     d="M 1.2830851,0.77697656 313.14309,515.77698"
     fill="none"
     stroke="#5a3c1e"
     stroke-width="3"
     id="path5" />
  <path
     class="real"
     d="m 286.94309,74.216977 c 0,-4.38 3.56,-7.92 7.95,-7.92 4.4,0 7.96,3.54 7.96,7.92 0,4.37 -3.56,7.92 -7.96,7.92 -4.39,0 -7.95,-3.55 -7.95,-7.92 z"
     fill="#dc5050"
     stroke="#000000"
     id="path6" />
  <path
     class="connection real"
     d="m 116.26309,187.25698 178.63,-113.040003"
     fill="none"
     stroke="#000000"
     stroke-dasharray="2.25, 3.685"
     stroke-width="2"
     id="path7" />
  <path
     class="real"
     d="m 108.31309,187.25698 c 0,-4.38 3.56,-7.92 7.95,-7.92 4.4,0 7.96,3.54 7.96,7.92 0,4.37 -3.56,7.92 -7.96,7.92 -4.39,0 -7.95,-3.55 -7.95,-7.92 z"
     fill="#dc5050"
     stroke="#000000"
     id="path8" />
  <path
     class="connection real"
     d="m 45.093085,457.24698 70.410005,-267.09"
     fill="none"
     id="path9"
     style="stroke:#7ed321;stroke-width:2" />
  <path
     d="m 116.78334,202.08485 q -1.58974,-8.44432 -0.51588,-14.8316 -2.21487,6.08645 -7.76127,12.64931"
     id="path10"
     style="fill:none;stroke:#7ed321;stroke-width:2" />
  <path
     class="connection real"
     d="M 45.093085,457.24698 293.25309,76.726977"
     fill="none"
     id="path11"
     style="stroke:#7ed321;stroke-width:2" />
  <path
     d="m 290.71544,88.465603 q 1.14806,-8.515614 4.17716,-14.240571 -4.0175,5.080385 -11.34721,9.564686"
     id="path12"
     style="fill:none;stroke:#7ed321;stroke-width:2" />
  <path
     class="connection real"
     d="m 242.82309,399.64698 79.76,-48.88"
     fill="none"
     stroke="#28785a"
     stroke-width="3"
     id="path13" />
  <path
     d="m 321.11577,354.12897 q 2.31466,-3.55298 4.86601,-5.45656 -2.8544,1.40905 -7.07096,1.85842"
     id="path14"
     style="fill:none;stroke:#28785a;stroke-width:3" />
  <path
     class="real"
     d="m 293.34309,74.696977 q -3.7,-5.94 -9.64,-2.25 l -77.23,47.980003 q -8.49,5.27 -12.18,-0.67 3.69,5.94 -4.8,11.22 m 2.54,-1.58 -70.94,44.07 q -5.95,3.69 -2.25,9.64"
     fill="none"
     stroke="#000000"
     id="path15" />
  <path
     d="m 73.533405,188.6125 c 0.3672,0.19584 0.75888,0.29376 1.05264,0.29376 0.80784,0 1.76256,-0.70992 2.52144,-1.86048 l 1.86048,-2.86416 0.26928,1.68912 c 0.31824,2.0808 0.88128,3.03552 1.76256,3.03552 0.53856,0 1.32192,-0.41616 2.10528,-1.12608 l 1.19952,-1.07712 -0.22032,-0.46512 c -0.88128,0.7344 -1.49328,1.1016 -1.88496,1.1016 -0.3672,0 -0.68544,-0.2448 -0.93024,-0.7344 -0.22032,-0.46512 -0.4896,-1.37088 -0.612,-2.0808 l -0.44064,-2.47248 0.8568,-1.19952 c 1.15056,-1.5912 1.81152,-2.15424 2.5704,-2.15424 0.39168,0 0.68544,0.19584 0.80784,0.56304 l 0.34272,-0.0979 0.3672,-2.0808 c -0.29376,-0.17136 -0.51408,-0.2448 -0.7344,-0.2448 -0.9792,0 -1.9584,0.88128 -3.47616,3.13344 l -0.90576,1.3464 -0.14688,-1.17504 c -0.29376,-2.42352 -0.95472,-3.3048 -2.39904,-3.3048 -0.63648,0 -1.17504,0.19584 -1.39536,0.51408 l -1.41984,2.03184 0.41616,0.2448 c 0.7344,-0.83232 1.224,-1.17504 1.68912,-1.17504 0.80784,0 1.3464,1.00368 1.76256,3.40272 l 0.26928,1.51776 -0.9792,1.51776 c -1.05264,1.64016 -1.88496,2.42352 -2.5704,2.42352 -0.3672,0 -0.63648,-0.0979 -0.68544,-0.22032 l -0.26928,-0.68544 -0.4896,0.0734 c 0,0.8568 -0.19584,1.49328 -0.29376,2.12976 z"
     fill="#000000"
     stroke="#000000"
     stroke-width="0.19584"
     id="path17"
     style="font-family:Asana-Math, Asana" />
  <path
     d="m 89.279025,193.64548 c 0.95961,0 2.93025,-1.25093 3.6671,-2.3305 0.70258,-1.0453 1.2852,-2.93026 1.2852,-4.21546 0,-1.14811 -0.39413,-1.90209 -1.01102,-1.90209 -0.71972,0 -1.62792,0.44553 -2.519,1.25093 -0.70257,0.59976 -1.04529,1.04529 -1.66219,2.05632 l 0.41127,-2.03919 c 0.0514,-0.29131 0.0857,-0.54835 0.0857,-0.75398 0,-0.32559 -0.13709,-0.51408 -0.377,-0.51408 -0.35985,0 -1.01102,0.35985 -2.27908,1.26806 l -0.47981,0.34272 0.11995,0.34272 0.54835,-0.35985 c 0.47981,-0.30845 0.66831,-0.39413 0.82253,-0.39413 0.17136,0 0.29131,0.15422 0.29131,0.39413 0,0.13708 -0.0343,0.4798 -0.0685,0.65116 l -0.99389,5.87765 c -0.17136,1.02816 -0.49694,2.58754 -0.83966,4.12978 l -0.13709,0.63403 0.11995,0.10282 c 0.35986,-0.11996 0.70258,-0.20564 1.25093,-0.29132 l 0.71971,-4.48963 c 0.35986,0.11995 0.73685,0.23991 1.0453,0.23991 z m -0.56549,-3.01594 c 0.37699,-2.19341 2.21054,-4.43822 3.63283,-4.43822 0.44554,0 0.65117,0.37699 0.65117,1.16524 0,1.38802 -0.68544,3.4272 -1.59365,4.72954 -0.34272,0.49694 -0.89107,0.75398 -1.59365,0.75398 -0.53121,0 -0.95961,-0.11995 -1.40515,-0.39412 z"
     fill="#000000"
     stroke="#000000"
     stroke-width="0.137088"
     id="path18"
     style="font-family:Asana-Math, Asana" />
  <path
     d="m 316.09341,66.638497 c 0.3672,0.19584 0.75888,0.29376 1.05264,0.29376 0.80784,0 1.76256,-0.70992 2.52144,-1.86048 l 1.86048,-2.86416 0.26928,1.68912 c 0.31824,2.0808 0.88128,3.03552 1.76256,3.03552 0.53856,0 1.32192,-0.41616 2.10528,-1.12608 l 1.19952,-1.07712 -0.22032,-0.46512 c -0.88128,0.7344 -1.49328,1.1016 -1.88496,1.1016 -0.3672,0 -0.68544,-0.2448 -0.93024,-0.7344 -0.22032,-0.46512 -0.4896,-1.37088 -0.612,-2.0808 l -0.44064,-2.47248 0.8568,-1.19952 c 1.15056,-1.5912 1.81152,-2.15424 2.5704,-2.15424 0.39168,0 0.68544,0.19584 0.80784,0.56304 l 0.34272,-0.09792 0.3672,-2.0808 c -0.29376,-0.17136 -0.51408,-0.2448 -0.7344,-0.2448 -0.9792,0 -1.9584,0.88128 -3.47616,3.13344 l -0.90576,1.3464 -0.14688,-1.17504 c -0.29376,-2.42352 -0.95472,-3.3048 -2.39904,-3.3048 -0.63648,0 -1.17504,0.19584 -1.39536,0.51408 l -1.41984,2.03184 0.41616,0.2448 c 0.7344,-0.83232 1.224,-1.17504 1.68912,-1.17504 0.80784,0 1.3464,1.00368 1.76256,3.40272 l 0.26928,1.51776 -0.9792,1.51776 c -1.05264,1.64016 -1.88496,2.42352 -2.5704,2.42352 -0.3672,0 -0.63648,-0.09792 -0.68544,-0.22032 l -0.26928,-0.68544 -0.4896,0.07344 c 0,0.8568 -0.19584,1.49328 -0.29376,2.12976 z"
     fill="#000000"
     stroke="#000000"
     stroke-width="0.19584"
     id="path19"
     style="font-family:Asana-Math, Asana" />
  <path
     d="m 266.22333,357.03586 -3.89232,8.9352 c -0.0734,-0.22032 -2.15424,-7.17264 -2.15424,-7.36848 0,-0.3672 0.31824,-0.56304 0.93024,-0.58752 l 0.9792,-0.049 v -0.68544 c -2.42352,0.0734 -2.42352,0.0734 -2.91312,0.0734 -0.4896,0 -0.4896,0 -2.91312,-0.0734 v 0.68544 l 0.68544,0.049 c 0.68544,0.049 1.00368,0.53856 1.61568,2.448 l 2.49696,8.22528 h 1.15056 l 3.672,-8.37216 3.32928,8.37216 h 1.12608 l 3.35376,-8.54352 c 0.7344,-1.64016 1.02816,-2.05632 1.56672,-2.12976 l 0.63648,-0.049 v -0.68544 c -2.00736,0.0734 -2.00736,0.0734 -2.39904,0.0734 -0.39168,0 -0.39168,0 -2.39904,-0.0734 v 0.68544 l 0.83232,0.049 c 0.612,0.0245 0.95472,0.31824 0.95472,0.75888 l -2.5704,7.344 -2.8152,-7.0992 c -0.34272,-0.83232 -0.51408,-1.32192 -0.70992,-1.98288 z"
     fill="#000000"
     stroke="#000000"
     stroke-width="0.58752"
     id="path20"
     style="font-family:Asana-Math, Asana" />
  <path
     d="m 184.06693,89.642417 -0.29376,-0.26928 c -1.27296,0.63648 -2.15424,0.8568 -3.9168,1.02816 l -0.0979,0.51408 h 1.17504 c 0.58752,0 0.83232,0.17136 0.83232,0.58752 0,0.19584 -0.0245,0.41616 -0.049,0.58752 l -0.68544,3.76992 c -0.7344,-0.22032 -1.39536,-0.34272 -2.00736,-0.34272 -1.68912,0 -3.99024,1.76256 -5.11632,3.89232 -0.75888,1.419843 -1.24848,3.745443 -1.24848,5.801763 0,1.5912 0.3672,2.37456 1.07712,2.37456 0.66096,0 1.56672,-0.41616 2.39904,-1.07712 1.32192,-1.07712 2.12976,-2.03184 3.76992,-4.50432 l -0.56304,2.22768 c -0.26928,1.07712 -0.39168,1.86048 -0.39168,2.49696 0,0.51408 0.22032,0.80784 0.63648,0.80784 0.41616,0 1.00368,-0.29376 1.836,-0.90576 l 1.98288,-1.4688 -0.2448,-0.46512 -1.07712,0.75888 c -0.34272,0.2448 -0.7344,0.41616 -0.95472,0.41616 -0.19584,0 -0.34272,-0.22032 -0.34272,-0.56304 0,-0.19584 0.0245,-0.41616 0.19584,-1.12608 z m -9.03312,16.230243 c -0.39168,0 -0.612,-0.34272 -0.612,-0.95472 0,-3.08448 1.12608,-6.903363 2.3256,-7.833603 0.31824,-0.2448 0.78336,-0.3672 1.44432,-0.3672 1.07712,0 1.78704,0.14688 2.59488,0.56304 l -0.29376,1.44432 c -0.90576,4.406403 -4.35744,7.148163 -5.45904,7.148163 z"
     fill="#000000"
     stroke="#000000"
     stroke-width="0.19584"
     id="path21"
     style="font-family:Asana-Math, Asana" />
  <path
     d="m 251.96333,477.09906 3.47616,-4.06368 c 0.14688,-0.17136 0.41616,-0.26928 0.83232,-0.26928 h 0.34272 v -0.68544 h -2.00736 l -3.03552,4.284 -1.86048,-2.83968 c -0.3672,-0.53856 -0.63648,-0.8568 -1.4688,-1.68912 l -2.83968,0.4896 0.1224,0.63648 0.51408,0.049 c 0.44064,0.0245 0.9792,0.3672 1.224,0.70992 l 2.9376,4.25952 -3.64752,4.30848 c -0.17136,0.22032 -0.4896,0.3672 -0.7344,0.3672 h -0.41616 v 0.66092 h 2.10528 l 3.28032,-4.70016 3.25584,4.7736 c 1.27296,-0.0734 1.27296,-0.0734 1.49328,-0.0734 0.2448,0 0.2448,0 1.51776,0.0734 v -0.7344 l -0.612,-0.0734 c -0.29376,-0.0245 -0.58752,-0.22032 -0.8568,-0.58752 z"
     fill="#000000"
     stroke="#000000"
     stroke-width="0.58752"
     id="path22"
     style="font-family:Asana-Math, Asana" />
  <path
     d="m 265.41594,488.18839 v -0.51408 l -0.89107,-0.0514 c -0.94248,-0.0514 -1.11384,-0.2399 -1.11384,-1.13098 v -10.35015 l -4.12978,1.74787 0.11995,0.8568 2.5704,-1.13097 v 8.87644 c 0,0.89108 -0.18849,1.07957 -1.11384,1.13098 l -0.95961,0.0514 v 0.51408 c 2.63894,-0.0514 2.63894,-0.0514 2.82744,-0.0514 0.53121,0 2.41617,0.0514 2.69035,0.0514 z"
     fill="#000000"
     stroke="#000000"
     stroke-width="0.137088"
     id="path23"
     style="font-family:Asana-Math, Asana" />
  <path
     d="m 8.6933251,260.55906 3.4761599,-4.06368 c 0.14688,-0.17136 0.41616,-0.26928 0.83232,-0.26928 h 0.34272 v -0.68544 h -2.00736 l -3.0355199,4.284 -1.86048,-2.83968 c -0.3672,-0.53856 -0.63648,-0.8568 -1.4688,-1.68912 l -2.83968,0.4896 0.1224,0.63648 0.51408,0.049 c 0.44064,0.0245 0.9792,0.3672 1.224,0.70992 l 2.9376,4.25952 -3.64752,4.30848 c -0.17136,0.22032 -0.4896,0.3672 -0.7344,0.3672 h -0.41616 v 0.66092 h 2.10528 l 3.28032,-4.70016 3.2558399,4.7736 c 1.27296,-0.0734 1.27296,-0.0734 1.49328,-0.0734 0.2448,0 0.2448,0 1.51776,0.0734 v -0.7344 l -0.612,-0.0734 c -0.29376,-0.0245 -0.58752,-0.22032 -0.8568,-0.58752 z"
     fill="#000000"
     stroke="#000000"
     stroke-width="0.58752"
     id="path24"
     style="font-family:Asana-Math, Asana" />
  <path
     d="m 15.257265,271.20285 v 0.44554 c 3.20443,0 3.20443,-0.0514 3.82132,-0.0514 0.6169,0 0.6169,0.0514 3.92415,0.0514 v -1.45656 c -1.97064,0.0857 -2.7589,0.0171 -5.92906,0.0857 l 3.11875,-3.30725 c 1.6622,-1.76501 2.17628,-2.70749 2.17628,-3.99269 0,-1.97064 -1.33661,-3.18729 -3.51288,-3.18729 -1.2338,0 -2.07346,0.34272 -2.91312,1.19952 l -0.29132,2.33049 h 0.49695 l 0.22277,-0.78825 c 0.27417,-0.99389 0.89107,-1.42229 2.03918,-1.42229 1.4737,0 2.41618,0.92534 2.41618,2.3819 0,1.2852 -0.71972,2.55327 -2.65608,4.60959 z"
     fill="#000000"
     stroke="#000000"
     stroke-width="0.137088"
     id="path25"
     style="font-family:Asana-Math, Asana" />
</svg>
