<?xml version="1.0" encoding="utf-8" standalone="no"?>
<!DOCTYPE svg PUBLIC "-//W3C//DTD SVG 1.1//EN"
  "http://www.w3.org/Graphics/SVG/1.1/DTD/svg11.dtd">
<svg xmlns:xlink="http://www.w3.org/1999/xlink" width="648pt" height="504pt" viewBox="0 0 648 504" xmlns="http://www.w3.org/2000/svg" version="1.1">
 <metadata>
  <rdf:RDF xmlns:dc="http://purl.org/dc/elements/1.1/" xmlns:cc="http://creativecommons.org/ns#" xmlns:rdf="http://www.w3.org/1999/02/22-rdf-syntax-ns#">
   <cc:Work>
    <dc:type rdf:resource="http://purl.org/dc/dcmitype/StillImage"/>
    <dc:date>2025-05-03T19:52:12.160727</dc:date>
    <dc:format>image/svg+xml</dc:format>
    <dc:creator>
     <cc:Agent>
      <dc:title>Matplotlib v3.10.0, https://matplotlib.org/</dc:title>
     </cc:Agent>
    </dc:creator>
   </cc:Work>
  </rdf:RDF>
 </metadata>
 <defs>
  <style type="text/css">*{stroke-linejoin: round; stroke-linecap: butt}</style>
 </defs>
 <g id="figure_1">
  <g id="patch_1">
   <path d="M 0 504 
L 648 504 
L 648 0 
L 0 0 
z
" style="fill: #ffffff"/>
  </g>
  <g id="axes_1">
   <g id="patch_2">
    <path d="M 81 448.56 
L 583.2 448.56 
L 583.2 60.48 
L 81 60.48 
z
" style="fill: #ffffff"/>
   </g>
   <g id="PathCollection_1">
    <defs>
     <path id="m7880e27b91" d="M 0 5 
C 1.326016 5 2.597899 4.473168 3.535534 3.535534 
C 4.473168 2.597899 5 1.326016 5 0 
C 5 -1.326016 4.473168 -2.597899 3.535534 -3.535534 
C 2.597899 -4.473168 1.326016 -5 0 -5 
C -1.326016 -5 -2.597899 -4.473168 -3.535534 -3.535534 
C -4.473168 -2.597899 -5 -1.326016 -5 0 
C -5 1.326016 -4.473168 2.597899 -3.535534 3.535534 
C -2.597899 4.473168 -1.326016 5 0 5 
z
" style="stroke: #000000"/>
    </defs>
    <g clip-path="url(#p2624af1722)">
     <use xlink:href="#m7880e27b91" x="196.503026" y="155.49448" style="fill: #0000ff; stroke: #000000"/>
     <use xlink:href="#m7880e27b91" x="194.104807" y="146.2186" style="fill: #0000ff; stroke: #000000"/>
     <use xlink:href="#m7880e27b91" x="227.417266" y="101.584203" style="fill: #0000ff; stroke: #000000"/>
     <use xlink:href="#m7880e27b91" x="199.705118" y="195.460686" style="fill: #0000ff; stroke: #000000"/>
     <use xlink:href="#m7880e27b91" x="183.261456" y="159.358735" style="fill: #0000ff; stroke: #000000"/>
     <use xlink:href="#m7880e27b91" x="216.609494" y="194.248217" style="fill: #0000ff; stroke: #000000"/>
     <use xlink:href="#m7880e27b91" x="196.859765" y="132.718713" style="fill: #0000ff; stroke: #000000"/>
     <use xlink:href="#m7880e27b91" x="165.27831" y="143.530784" style="fill: #0000ff; stroke: #000000"/>
     <use xlink:href="#m7880e27b91" x="217.500713" y="211.850991" style="fill: #0000ff; stroke: #000000"/>
     <use xlink:href="#m7880e27b91" x="272.205803" y="125.685535" style="fill: #0000ff; stroke: #000000"/>
     <use xlink:href="#m7880e27b91" x="244.008806" y="107.270069" style="fill: #0000ff; stroke: #000000"/>
     <use xlink:href="#m7880e27b91" x="205.514334" y="157.010677" style="fill: #0000ff; stroke: #000000"/>
     <use xlink:href="#m7880e27b91" x="159.749298" y="172.20165" style="fill: #0000ff; stroke: #000000"/>
     <use xlink:href="#m7880e27b91" x="171.795045" y="137.937487" style="fill: #0000ff; stroke: #000000"/>
     <use xlink:href="#m7880e27b91" x="268.029177" y="156.749189" style="fill: #0000ff; stroke: #000000"/>
     <use xlink:href="#m7880e27b91" x="226.763457" y="204.828632" style="fill: #0000ff; stroke: #000000"/>
     <use xlink:href="#m7880e27b91" x="226.309074" y="119.176677" style="fill: #0000ff; stroke: #000000"/>
     <use xlink:href="#m7880e27b91" x="184.391412" y="165.380759" style="fill: #0000ff; stroke: #000000"/>
     <use xlink:href="#m7880e27b91" x="221.807487" y="210.978429" style="fill: #0000ff; stroke: #000000"/>
     <use xlink:href="#m7880e27b91" x="241.285076" y="144.328101" style="fill: #0000ff; stroke: #000000"/>
     <use xlink:href="#m7880e27b91" x="268.47953" y="165.897225" style="fill: #0000ff; stroke: #000000"/>
     <use xlink:href="#m7880e27b91" x="212.808361" y="100.75204" style="fill: #0000ff; stroke: #000000"/>
     <use xlink:href="#m7880e27b91" x="225.016589" y="141.523052" style="fill: #0000ff; stroke: #000000"/>
     <use xlink:href="#m7880e27b91" x="173.437486" y="187.100355" style="fill: #0000ff; stroke: #000000"/>
     <use xlink:href="#m7880e27b91" x="150.687421" y="167.27391" style="fill: #0000ff; stroke: #000000"/>
     <use xlink:href="#m7880e27b91" x="197.082516" y="164.25397" style="fill: #0000ff; stroke: #000000"/>
     <use xlink:href="#m7880e27b91" x="223.024781" y="209.527539" style="fill: #0000ff; stroke: #000000"/>
     <use xlink:href="#m7880e27b91" x="217.696252" y="119.392486" style="fill: #0000ff; stroke: #000000"/>
     <use xlink:href="#m7880e27b91" x="227.426108" y="169.864569" style="fill: #0000ff; stroke: #000000"/>
     <use xlink:href="#m7880e27b91" x="217.327353" y="159.039563" style="fill: #0000ff; stroke: #000000"/>
     <use xlink:href="#m7880e27b91" x="194.64259" y="133.634868" style="fill: #0000ff; stroke: #000000"/>
     <use xlink:href="#m7880e27b91" x="162.071856" y="162.84391" style="fill: #0000ff; stroke: #000000"/>
     <use xlink:href="#m7880e27b91" x="197.184719" y="116.625273" style="fill: #0000ff; stroke: #000000"/>
     <use xlink:href="#m7880e27b91" x="211.477593" y="118.301332" style="fill: #0000ff; stroke: #000000"/>
     <use xlink:href="#m7880e27b91" x="213.629564" y="182.768765" style="fill: #0000ff; stroke: #000000"/>
     <use xlink:href="#m7880e27b91" x="191.996566" y="91.755986" style="fill: #0000ff; stroke: #000000"/>
     <use xlink:href="#m7880e27b91" x="244.377285" y="187.870902" style="fill: #0000ff; stroke: #000000"/>
     <use xlink:href="#m7880e27b91" x="180.730909" y="193.859004" style="fill: #0000ff; stroke: #000000"/>
     <use xlink:href="#m7880e27b91" x="209.872681" y="159.105128" style="fill: #0000ff; stroke: #000000"/>
     <use xlink:href="#m7880e27b91" x="188.306051" y="159.93577" style="fill: #0000ff; stroke: #000000"/>
     <use xlink:href="#m7880e27b91" x="117.777717" y="123.982002" style="fill: #0000ff; stroke: #000000"/>
     <use xlink:href="#m7880e27b91" x="176.876345" y="139.859418" style="fill: #0000ff; stroke: #000000"/>
     <use xlink:href="#m7880e27b91" x="192.035841" y="158.810823" style="fill: #0000ff; stroke: #000000"/>
     <use xlink:href="#m7880e27b91" x="226.04503" y="161.731641" style="fill: #0000ff; stroke: #000000"/>
     <use xlink:href="#m7880e27b91" x="189.230315" y="130.557034" style="fill: #0000ff; stroke: #000000"/>
     <use xlink:href="#m7880e27b91" x="201.521704" y="174.779826" style="fill: #0000ff; stroke: #000000"/>
     <use xlink:href="#m7880e27b91" x="252.04377" y="120.561109" style="fill: #0000ff; stroke: #000000"/>
     <use xlink:href="#m7880e27b91" x="247.792361" y="139.405798" style="fill: #0000ff; stroke: #000000"/>
     <use xlink:href="#m7880e27b91" x="206.04693" y="138.518765" style="fill: #0000ff; stroke: #000000"/>
     <use xlink:href="#m7880e27b91" x="214.314022" y="157.024757" style="fill: #0000ff; stroke: #000000"/>
    </g>
   </g>
   <g id="PathCollection_2">
    <defs>
     <path id="m71b09ac527" d="M -5 5 
L 5 5 
L 5 -5 
L -5 -5 
z
" style="stroke: #000000"/>
    </defs>
    <g clip-path="url(#p2624af1722)">
     <use xlink:href="#m71b09ac527" x="516.884824" y="336.946975" style="fill: #ff0000; stroke: #000000"/>
     <use xlink:href="#m71b09ac527" x="507.286168" y="310.581602" style="fill: #ff0000; stroke: #000000"/>
     <use xlink:href="#m71b09ac527" x="485.418129" y="329.023494" style="fill: #ff0000; stroke: #000000"/>
     <use xlink:href="#m71b09ac527" x="487.228728" y="344.034701" style="fill: #ff0000; stroke: #000000"/>
     <use xlink:href="#m71b09ac527" x="420.022811" y="367.761298" style="fill: #ff0000; stroke: #000000"/>
     <use xlink:href="#m71b09ac527" x="431.560449" y="411.204256" style="fill: #ff0000; stroke: #000000"/>
     <use xlink:href="#m71b09ac527" x="452.042915" y="362.64171" style="fill: #ff0000; stroke: #000000"/>
     <use xlink:href="#m71b09ac527" x="448.246404" y="379.978465" style="fill: #ff0000; stroke: #000000"/>
     <use xlink:href="#m71b09ac527" x="479.267801" y="292.865347" style="fill: #ff0000; stroke: #000000"/>
     <use xlink:href="#m71b09ac527" x="437.667691" y="354.815873" style="fill: #ff0000; stroke: #000000"/>
     <use xlink:href="#m71b09ac527" x="479.193456" y="405.653196" style="fill: #ff0000; stroke: #000000"/>
     <use xlink:href="#m71b09ac527" x="484.926551" y="408.867382" style="fill: #ff0000; stroke: #000000"/>
     <use xlink:href="#m71b09ac527" x="469.978075" y="360.474483" style="fill: #ff0000; stroke: #000000"/>
     <use xlink:href="#m71b09ac527" x="506.145021" y="398.347663" style="fill: #ff0000; stroke: #000000"/>
     <use xlink:href="#m71b09ac527" x="512.483446" y="356.995543" style="fill: #ff0000; stroke: #000000"/>
     <use xlink:href="#m71b09ac527" x="486.610568" y="345.453392" style="fill: #ff0000; stroke: #000000"/>
     <use xlink:href="#m71b09ac527" x="474.217047" y="359.235809" style="fill: #ff0000; stroke: #000000"/>
     <use xlink:href="#m71b09ac527" x="496.248491" y="360.617185" style="fill: #ff0000; stroke: #000000"/>
     <use xlink:href="#m71b09ac527" x="467.319198" y="284.8297" style="fill: #ff0000; stroke: #000000"/>
     <use xlink:href="#m71b09ac527" x="498.635936" y="301.397013" style="fill: #ff0000; stroke: #000000"/>
     <use xlink:href="#m71b09ac527" x="483.421871" y="357.854492" style="fill: #ff0000; stroke: #000000"/>
     <use xlink:href="#m71b09ac527" x="506.971978" y="408.402168" style="fill: #ff0000; stroke: #000000"/>
     <use xlink:href="#m71b09ac527" x="441.206105" y="345.288826" style="fill: #ff0000; stroke: #000000"/>
     <use xlink:href="#m71b09ac527" x="494.457271" y="372.183469" style="fill: #ff0000; stroke: #000000"/>
     <use xlink:href="#m71b09ac527" x="468.027857" y="393.479515" style="fill: #ff0000; stroke: #000000"/>
     <use xlink:href="#m71b09ac527" x="433.239249" y="349.371312" style="fill: #ff0000; stroke: #000000"/>
     <use xlink:href="#m71b09ac527" x="477.530852" y="324.444961" style="fill: #ff0000; stroke: #000000"/>
     <use xlink:href="#m71b09ac527" x="490.211274" y="352.366584" style="fill: #ff0000; stroke: #000000"/>
     <use xlink:href="#m71b09ac527" x="500.063288" y="396.714121" style="fill: #ff0000; stroke: #000000"/>
     <use xlink:href="#m71b09ac527" x="486.524787" y="372.234043" style="fill: #ff0000; stroke: #000000"/>
     <use xlink:href="#m71b09ac527" x="444.338362" y="395.420944" style="fill: #ff0000; stroke: #000000"/>
     <use xlink:href="#m71b09ac527" x="468.834221" y="347.574604" style="fill: #ff0000; stroke: #000000"/>
     <use xlink:href="#m71b09ac527" x="406.484647" y="370.734921" style="fill: #ff0000; stroke: #000000"/>
     <use xlink:href="#m71b09ac527" x="519.663172" y="395.573322" style="fill: #ff0000; stroke: #000000"/>
     <use xlink:href="#m71b09ac527" x="444.546413" y="365.097769" style="fill: #ff0000; stroke: #000000"/>
     <use xlink:href="#m71b09ac527" x="546.422283" y="364.44558" style="fill: #ff0000; stroke: #000000"/>
     <use xlink:href="#m71b09ac527" x="417.933108" y="364.131067" style="fill: #ff0000; stroke: #000000"/>
     <use xlink:href="#m71b09ac527" x="486.265227" y="359.070164" style="fill: #ff0000; stroke: #000000"/>
     <use xlink:href="#m71b09ac527" x="440.623007" y="387.617193" style="fill: #ff0000; stroke: #000000"/>
     <use xlink:href="#m71b09ac527" x="545.671599" y="355.086081" style="fill: #ff0000; stroke: #000000"/>
     <use xlink:href="#m71b09ac527" x="519.083086" y="346.388226" style="fill: #ff0000; stroke: #000000"/>
     <use xlink:href="#m71b09ac527" x="460.630871" y="343.120956" style="fill: #ff0000; stroke: #000000"/>
     <use xlink:href="#m71b09ac527" x="471.120951" y="357.268584" style="fill: #ff0000; stroke: #000000"/>
     <use xlink:href="#m71b09ac527" x="480.717621" y="385.652371" style="fill: #ff0000; stroke: #000000"/>
     <use xlink:href="#m71b09ac527" x="443.238347" y="321.429946" style="fill: #ff0000; stroke: #000000"/>
     <use xlink:href="#m71b09ac527" x="487.831208" y="392.247718" style="fill: #ff0000; stroke: #000000"/>
     <use xlink:href="#m71b09ac527" x="437.983566" y="355.093603" style="fill: #ff0000; stroke: #000000"/>
     <use xlink:href="#m71b09ac527" x="475.776052" y="406.457231" style="fill: #ff0000; stroke: #000000"/>
     <use xlink:href="#m71b09ac527" x="528.644244" y="413.749947" style="fill: #ff0000; stroke: #000000"/>
     <use xlink:href="#m71b09ac527" x="445.909532" y="417.284014" style="fill: #ff0000; stroke: #000000"/>
    </g>
   </g>
   <g id="matplotlib.axis_1">
    <g id="xtick_1">
     <g id="line2d_1">
      <path d="M 85.742219 448.56 
L 85.742219 60.48 
" clip-path="url(#p2624af1722)" style="fill: none; stroke: #b0b0b0; stroke-width: 0.8; stroke-linecap: square"/>
     </g>
     <g id="line2d_2">
      <defs>
       <path id="m60e7859b7d" d="M 0 0 
L 0 3.5 
" style="stroke: #000000; stroke-width: 0.8"/>
      </defs>
      <g>
       <use xlink:href="#m60e7859b7d" x="85.742219" y="448.56" style="stroke: #000000; stroke-width: 0.8"/>
      </g>
     </g>
     <g id="text_1">
      <!-- −6 -->
      <g transform="translate(78.371125 463.158437) scale(0.1 -0.1)">
       <defs>
        <path id="DejaVuSans-2212" d="M 678 2272 
L 4684 2272 
L 4684 1741 
L 678 1741 
L 678 2272 
z
" transform="scale(0.015625)"/>
        <path id="DejaVuSans-36" d="M 2113 2584 
Q 1688 2584 1439 2293 
Q 1191 2003 1191 1497 
Q 1191 994 1439 701 
Q 1688 409 2113 409 
Q 2538 409 2786 701 
Q 3034 994 3034 1497 
Q 3034 2003 2786 2293 
Q 2538 2584 2113 2584 
z
M 3366 4563 
L 3366 3988 
Q 3128 4100 2886 4159 
Q 2644 4219 2406 4219 
Q 1781 4219 1451 3797 
Q 1122 3375 1075 2522 
Q 1259 2794 1537 2939 
Q 1816 3084 2150 3084 
Q 2853 3084 3261 2657 
Q 3669 2231 3669 1497 
Q 3669 778 3244 343 
Q 2819 -91 2113 -91 
Q 1303 -91 875 529 
Q 447 1150 447 2328 
Q 447 3434 972 4092 
Q 1497 4750 2381 4750 
Q 2619 4750 2861 4703 
Q 3103 4656 3366 4563 
z
" transform="scale(0.015625)"/>
       </defs>
       <use xlink:href="#DejaVuSans-2212"/>
       <use xlink:href="#DejaVuSans-36" transform="translate(83.789062 0)"/>
      </g>
     </g>
    </g>
    <g id="xtick_2">
     <g id="line2d_3">
      <path d="M 159.297653 448.56 
L 159.297653 60.48 
" clip-path="url(#p2624af1722)" style="fill: none; stroke: #b0b0b0; stroke-width: 0.8; stroke-linecap: square"/>
     </g>
     <g id="line2d_4">
      <g>
       <use xlink:href="#m60e7859b7d" x="159.297653" y="448.56" style="stroke: #000000; stroke-width: 0.8"/>
      </g>
     </g>
     <g id="text_2">
      <!-- −4 -->
      <g transform="translate(151.926559 463.158437) scale(0.1 -0.1)">
       <defs>
        <path id="DejaVuSans-34" d="M 2419 4116 
L 825 1625 
L 2419 1625 
L 2419 4116 
z
M 2253 4666 
L 3047 4666 
L 3047 1625 
L 3713 1625 
L 3713 1100 
L 3047 1100 
L 3047 0 
L 2419 0 
L 2419 1100 
L 313 1100 
L 313 1709 
L 2253 4666 
z
" transform="scale(0.015625)"/>
       </defs>
       <use xlink:href="#DejaVuSans-2212"/>
       <use xlink:href="#DejaVuSans-34" transform="translate(83.789062 0)"/>
      </g>
     </g>
    </g>
    <g id="xtick_3">
     <g id="line2d_5">
      <path d="M 232.853087 448.56 
L 232.853087 60.48 
" clip-path="url(#p2624af1722)" style="fill: none; stroke: #b0b0b0; stroke-width: 0.8; stroke-linecap: square"/>
     </g>
     <g id="line2d_6">
      <g>
       <use xlink:href="#m60e7859b7d" x="232.853087" y="448.56" style="stroke: #000000; stroke-width: 0.8"/>
      </g>
     </g>
     <g id="text_3">
      <!-- −2 -->
      <g transform="translate(225.481993 463.158437) scale(0.1 -0.1)">
       <defs>
        <path id="DejaVuSans-32" d="M 1228 531 
L 3431 531 
L 3431 0 
L 469 0 
L 469 531 
Q 828 903 1448 1529 
Q 2069 2156 2228 2338 
Q 2531 2678 2651 2914 
Q 2772 3150 2772 3378 
Q 2772 3750 2511 3984 
Q 2250 4219 1831 4219 
Q 1534 4219 1204 4116 
Q 875 4013 500 3803 
L 500 4441 
Q 881 4594 1212 4672 
Q 1544 4750 1819 4750 
Q 2544 4750 2975 4387 
Q 3406 4025 3406 3419 
Q 3406 3131 3298 2873 
Q 3191 2616 2906 2266 
Q 2828 2175 2409 1742 
Q 1991 1309 1228 531 
z
" transform="scale(0.015625)"/>
       </defs>
       <use xlink:href="#DejaVuSans-2212"/>
       <use xlink:href="#DejaVuSans-32" transform="translate(83.789062 0)"/>
      </g>
     </g>
    </g>
    <g id="xtick_4">
     <g id="line2d_7">
      <path d="M 306.408521 448.56 
L 306.408521 60.48 
" clip-path="url(#p2624af1722)" style="fill: none; stroke: #b0b0b0; stroke-width: 0.8; stroke-linecap: square"/>
     </g>
     <g id="line2d_8">
      <g>
       <use xlink:href="#m60e7859b7d" x="306.408521" y="448.56" style="stroke: #000000; stroke-width: 0.8"/>
      </g>
     </g>
     <g id="text_4">
      <!-- 0 -->
      <g transform="translate(303.227271 463.158437) scale(0.1 -0.1)">
       <defs>
        <path id="DejaVuSans-30" d="M 2034 4250 
Q 1547 4250 1301 3770 
Q 1056 3291 1056 2328 
Q 1056 1369 1301 889 
Q 1547 409 2034 409 
Q 2525 409 2770 889 
Q 3016 1369 3016 2328 
Q 3016 3291 2770 3770 
Q 2525 4250 2034 4250 
z
M 2034 4750 
Q 2819 4750 3233 4129 
Q 3647 3509 3647 2328 
Q 3647 1150 3233 529 
Q 2819 -91 2034 -91 
Q 1250 -91 836 529 
Q 422 1150 422 2328 
Q 422 3509 836 4129 
Q 1250 4750 2034 4750 
z
" transform="scale(0.015625)"/>
       </defs>
       <use xlink:href="#DejaVuSans-30"/>
      </g>
     </g>
    </g>
    <g id="xtick_5">
     <g id="line2d_9">
      <path d="M 379.963955 448.56 
L 379.963955 60.48 
" clip-path="url(#p2624af1722)" style="fill: none; stroke: #b0b0b0; stroke-width: 0.8; stroke-linecap: square"/>
     </g>
     <g id="line2d_10">
      <g>
       <use xlink:href="#m60e7859b7d" x="379.963955" y="448.56" style="stroke: #000000; stroke-width: 0.8"/>
      </g>
     </g>
     <g id="text_5">
      <!-- 2 -->
      <g transform="translate(376.782705 463.158437) scale(0.1 -0.1)">
       <use xlink:href="#DejaVuSans-32"/>
      </g>
     </g>
    </g>
    <g id="xtick_6">
     <g id="line2d_11">
      <path d="M 453.519389 448.56 
L 453.519389 60.48 
" clip-path="url(#p2624af1722)" style="fill: none; stroke: #b0b0b0; stroke-width: 0.8; stroke-linecap: square"/>
     </g>
     <g id="line2d_12">
      <g>
       <use xlink:href="#m60e7859b7d" x="453.519389" y="448.56" style="stroke: #000000; stroke-width: 0.8"/>
      </g>
     </g>
     <g id="text_6">
      <!-- 4 -->
      <g transform="translate(450.338139 463.158437) scale(0.1 -0.1)">
       <use xlink:href="#DejaVuSans-34"/>
      </g>
     </g>
    </g>
    <g id="xtick_7">
     <g id="line2d_13">
      <path d="M 527.074823 448.56 
L 527.074823 60.48 
" clip-path="url(#p2624af1722)" style="fill: none; stroke: #b0b0b0; stroke-width: 0.8; stroke-linecap: square"/>
     </g>
     <g id="line2d_14">
      <g>
       <use xlink:href="#m60e7859b7d" x="527.074823" y="448.56" style="stroke: #000000; stroke-width: 0.8"/>
      </g>
     </g>
     <g id="text_7">
      <!-- 6 -->
      <g transform="translate(523.893573 463.158437) scale(0.1 -0.1)">
       <use xlink:href="#DejaVuSans-36"/>
      </g>
     </g>
    </g>
    <g id="text_8">
     <!-- $x_1$ -->
     <g transform="translate(326.75 476.836563) scale(0.1 -0.1)">
      <defs>
       <path id="DejaVuSans-Oblique-78" d="M 3841 3500 
L 2234 1784 
L 3219 0 
L 2559 0 
L 1819 1388 
L 531 0 
L -166 0 
L 1556 1844 
L 641 3500 
L 1300 3500 
L 1972 2234 
L 3144 3500 
L 3841 3500 
z
" transform="scale(0.015625)"/>
       <path id="DejaVuSans-31" d="M 794 531 
L 1825 531 
L 1825 4091 
L 703 3866 
L 703 4441 
L 1819 4666 
L 2450 4666 
L 2450 531 
L 3481 531 
L 3481 0 
L 794 0 
L 794 531 
z
" transform="scale(0.015625)"/>
      </defs>
      <use xlink:href="#DejaVuSans-Oblique-78" transform="translate(0 0.3125)"/>
      <use xlink:href="#DejaVuSans-31" transform="translate(59.179688 -16.09375) scale(0.7)"/>
     </g>
    </g>
   </g>
   <g id="matplotlib.axis_2">
    <g id="ytick_1">
     <g id="line2d_15">
      <path d="M 81 431.618501 
L 583.2 431.618501 
" clip-path="url(#p2624af1722)" style="fill: none; stroke: #b0b0b0; stroke-width: 0.8; stroke-linecap: square"/>
     </g>
     <g id="line2d_16">
      <defs>
       <path id="mae851f44b8" d="M 0 0 
L -3.5 0 
" style="stroke: #000000; stroke-width: 0.8"/>
      </defs>
      <g>
       <use xlink:href="#mae851f44b8" x="81" y="431.618501" style="stroke: #000000; stroke-width: 0.8"/>
      </g>
     </g>
     <g id="text_9">
      <!-- 0 -->
      <g transform="translate(67.6375 435.41772) scale(0.1 -0.1)">
       <use xlink:href="#DejaVuSans-30"/>
      </g>
     </g>
    </g>
    <g id="ytick_2">
     <g id="line2d_17">
      <path d="M 81 369.066529 
L 583.2 369.066529 
" clip-path="url(#p2624af1722)" style="fill: none; stroke: #b0b0b0; stroke-width: 0.8; stroke-linecap: square"/>
     </g>
     <g id="line2d_18">
      <g>
       <use xlink:href="#mae851f44b8" x="81" y="369.066529" style="stroke: #000000; stroke-width: 0.8"/>
      </g>
     </g>
     <g id="text_10">
      <!-- 2 -->
      <g transform="translate(67.6375 372.865747) scale(0.1 -0.1)">
       <use xlink:href="#DejaVuSans-32"/>
      </g>
     </g>
    </g>
    <g id="ytick_3">
     <g id="line2d_19">
      <path d="M 81 306.514556 
L 583.2 306.514556 
" clip-path="url(#p2624af1722)" style="fill: none; stroke: #b0b0b0; stroke-width: 0.8; stroke-linecap: square"/>
     </g>
     <g id="line2d_20">
      <g>
       <use xlink:href="#mae851f44b8" x="81" y="306.514556" style="stroke: #000000; stroke-width: 0.8"/>
      </g>
     </g>
     <g id="text_11">
      <!-- 4 -->
      <g transform="translate(67.6375 310.313775) scale(0.1 -0.1)">
       <use xlink:href="#DejaVuSans-34"/>
      </g>
     </g>
    </g>
    <g id="ytick_4">
     <g id="line2d_21">
      <path d="M 81 243.962584 
L 583.2 243.962584 
" clip-path="url(#p2624af1722)" style="fill: none; stroke: #b0b0b0; stroke-width: 0.8; stroke-linecap: square"/>
     </g>
     <g id="line2d_22">
      <g>
       <use xlink:href="#mae851f44b8" x="81" y="243.962584" style="stroke: #000000; stroke-width: 0.8"/>
      </g>
     </g>
     <g id="text_12">
      <!-- 6 -->
      <g transform="translate(67.6375 247.761803) scale(0.1 -0.1)">
       <use xlink:href="#DejaVuSans-36"/>
      </g>
     </g>
    </g>
    <g id="ytick_5">
     <g id="line2d_23">
      <path d="M 81 181.410612 
L 583.2 181.410612 
" clip-path="url(#p2624af1722)" style="fill: none; stroke: #b0b0b0; stroke-width: 0.8; stroke-linecap: square"/>
     </g>
     <g id="line2d_24">
      <g>
       <use xlink:href="#mae851f44b8" x="81" y="181.410612" style="stroke: #000000; stroke-width: 0.8"/>
      </g>
     </g>
     <g id="text_13">
      <!-- 8 -->
      <g transform="translate(67.6375 185.209831) scale(0.1 -0.1)">
       <defs>
        <path id="DejaVuSans-38" d="M 2034 2216 
Q 1584 2216 1326 1975 
Q 1069 1734 1069 1313 
Q 1069 891 1326 650 
Q 1584 409 2034 409 
Q 2484 409 2743 651 
Q 3003 894 3003 1313 
Q 3003 1734 2745 1975 
Q 2488 2216 2034 2216 
z
M 1403 2484 
Q 997 2584 770 2862 
Q 544 3141 544 3541 
Q 544 4100 942 4425 
Q 1341 4750 2034 4750 
Q 2731 4750 3128 4425 
Q 3525 4100 3525 3541 
Q 3525 3141 3298 2862 
Q 3072 2584 2669 2484 
Q 3125 2378 3379 2068 
Q 3634 1759 3634 1313 
Q 3634 634 3220 271 
Q 2806 -91 2034 -91 
Q 1263 -91 848 271 
Q 434 634 434 1313 
Q 434 1759 690 2068 
Q 947 2378 1403 2484 
z
M 1172 3481 
Q 1172 3119 1398 2916 
Q 1625 2713 2034 2713 
Q 2441 2713 2670 2916 
Q 2900 3119 2900 3481 
Q 2900 3844 2670 4047 
Q 2441 4250 2034 4250 
Q 1625 4250 1398 4047 
Q 1172 3844 1172 3481 
z
" transform="scale(0.015625)"/>
       </defs>
       <use xlink:href="#DejaVuSans-38"/>
      </g>
     </g>
    </g>
    <g id="ytick_6">
     <g id="line2d_25">
      <path d="M 81 118.85864 
L 583.2 118.85864 
" clip-path="url(#p2624af1722)" style="fill: none; stroke: #b0b0b0; stroke-width: 0.8; stroke-linecap: square"/>
     </g>
     <g id="line2d_26">
      <g>
       <use xlink:href="#mae851f44b8" x="81" y="118.85864" style="stroke: #000000; stroke-width: 0.8"/>
      </g>
     </g>
     <g id="text_14">
      <!-- 10 -->
      <g transform="translate(61.275 122.657858) scale(0.1 -0.1)">
       <use xlink:href="#DejaVuSans-31"/>
       <use xlink:href="#DejaVuSans-30" transform="translate(63.623047 0)"/>
      </g>
     </g>
    </g>
    <g id="text_15">
     <!-- $x_2$ -->
     <g transform="translate(55.195312 259.87) rotate(-90) scale(0.1 -0.1)">
      <use xlink:href="#DejaVuSans-Oblique-78" transform="translate(0 0.3125)"/>
      <use xlink:href="#DejaVuSans-32" transform="translate(59.179688 -16.09375) scale(0.7)"/>
     </g>
    </g>
   </g>
   <g id="line2d_27">
    <path d="M 81 313.576316 
L 86.072727 312.71354 
L 91.145455 311.850765 
L 96.218182 310.987989 
L 101.290909 310.125214 
L 106.363636 309.262439 
L 111.436364 308.399663 
L 116.509091 307.536888 
L 121.581818 306.674112 
L 126.654545 305.811337 
L 131.727273 304.948562 
L 136.8 304.085786 
L 141.872727 303.223011 
L 146.945455 302.360235 
L 152.018182 301.49746 
L 157.090909 300.634685 
L 162.163636 299.771909 
L 167.236364 298.909134 
L 172.309091 298.046358 
L 177.381818 297.183583 
L 182.454545 296.320808 
L 187.527273 295.458032 
L 192.6 294.595257 
L 197.672727 293.732481 
L 202.745455 292.869706 
L 207.818182 292.006931 
L 212.890909 291.144155 
L 217.963636 290.28138 
L 223.036364 289.418604 
L 228.109091 288.555829 
L 233.181818 287.693054 
L 238.254545 286.830278 
L 243.327273 285.967503 
L 248.4 285.104727 
L 253.472727 284.241952 
L 258.545455 283.379177 
L 263.618182 282.516401 
L 268.690909 281.653626 
L 273.763636 280.79085 
L 278.836364 279.928075 
L 283.909091 279.0653 
L 288.981818 278.202524 
L 294.054545 277.339749 
L 299.127273 276.476973 
L 304.2 275.614198 
L 309.272727 274.751423 
L 314.345455 273.888647 
L 319.418182 273.025872 
L 324.490909 272.163096 
L 329.563636 271.300321 
L 334.636364 270.437546 
L 339.709091 269.57477 
L 344.781818 268.711995 
L 349.854545 267.849219 
L 354.927273 266.986444 
L 360 266.123669 
L 365.072727 265.260893 
L 370.145455 264.398118 
L 375.218182 263.535342 
L 380.290909 262.672567 
L 385.363636 261.809792 
L 390.436364 260.947016 
L 395.509091 260.084241 
L 400.581818 259.221465 
L 405.654545 258.35869 
L 410.727273 257.495915 
L 415.8 256.633139 
L 420.872727 255.770364 
L 425.945455 254.907588 
L 431.018182 254.044813 
L 436.090909 253.182038 
L 441.163636 252.319262 
L 446.236364 251.456487 
L 451.309091 250.593711 
L 456.381818 249.730936 
L 461.454545 248.868161 
L 466.527273 248.005385 
L 471.6 247.14261 
L 476.672727 246.279834 
L 481.745455 245.417059 
L 486.818182 244.554284 
L 491.890909 243.691508 
L 496.963636 242.828733 
L 502.036364 241.965957 
L 507.109091 241.103182 
L 512.181818 240.240407 
L 517.254545 239.377631 
L 522.327273 238.514856 
L 527.4 237.65208 
L 532.472727 236.789305 
L 537.545455 235.92653 
L 542.618182 235.063754 
L 547.690909 234.200979 
L 552.763636 233.338203 
L 557.836364 232.475428 
L 562.909091 231.612652 
L 567.981818 230.749877 
L 573.054545 229.887102 
L 578.127273 229.024326 
L 583.2 228.161551 
" clip-path="url(#p2624af1722)" style="fill: none; stroke: #1f77b4; stroke-opacity: 0.7; stroke-width: 2; stroke-linecap: square"/>
   </g>
   <g id="line2d_28">
    <path d="M 81 371.082934 
L 86.072727 368.925995 
L 91.145455 366.769057 
L 96.218182 364.612118 
L 101.290909 362.45518 
L 106.363636 360.298241 
L 111.436364 358.141303 
L 116.509091 355.984364 
L 121.581818 353.827426 
L 126.654545 351.670487 
L 131.727273 349.513549 
L 136.8 347.35661 
L 141.872727 345.199672 
L 146.945455 343.042733 
L 152.018182 340.885795 
L 157.090909 338.728856 
L 162.163636 336.571918 
L 167.236364 334.414979 
L 172.309091 332.258041 
L 177.381818 330.101102 
L 182.454545 327.944164 
L 187.527273 325.787225 
L 192.6 323.630287 
L 197.672727 321.473348 
L 202.745455 319.31641 
L 207.818182 317.159471 
L 212.890909 315.002533 
L 217.963636 312.845594 
L 223.036364 310.688656 
L 228.109091 308.531717 
L 233.181818 306.374779 
L 238.254545 304.21784 
L 243.327273 302.060902 
L 248.4 299.903963 
L 253.472727 297.747025 
L 258.545455 295.590086 
L 263.618182 293.433148 
L 268.690909 291.276209 
L 273.763636 289.119271 
L 278.836364 286.962332 
L 283.909091 284.805394 
L 288.981818 282.648455 
L 294.054545 280.491517 
L 299.127273 278.334578 
L 304.2 276.17764 
L 309.272727 274.020701 
L 314.345455 271.863763 
L 319.418182 269.706824 
L 324.490909 267.549886 
L 329.563636 265.392947 
L 334.636364 263.236009 
L 339.709091 261.07907 
L 344.781818 258.922132 
L 349.854545 256.765193 
L 354.927273 254.608255 
L 360 252.451316 
L 365.072727 250.294378 
L 370.145455 248.137439 
L 375.218182 245.980501 
L 380.290909 243.823562 
L 385.363636 241.666624 
L 390.436364 239.509685 
L 395.509091 237.352747 
L 400.581818 235.195808 
L 405.654545 233.03887 
L 410.727273 230.881931 
L 415.8 228.724993 
L 420.872727 226.568054 
L 425.945455 224.411116 
L 431.018182 222.254177 
L 436.090909 220.097239 
L 441.163636 217.9403 
L 446.236364 215.783362 
L 451.309091 213.626423 
L 456.381818 211.469485 
L 461.454545 209.312546 
L 466.527273 207.155608 
L 471.6 204.998669 
L 476.672727 202.841731 
L 481.745455 200.684792 
L 486.818182 198.527854 
L 491.890909 196.370915 
L 496.963636 194.213977 
L 502.036364 192.057038 
L 507.109091 189.9001 
L 512.181818 187.743161 
L 517.254545 185.586223 
L 522.327273 183.429284 
L 527.4 181.272346 
L 532.472727 179.115407 
L 537.545455 176.958469 
L 542.618182 174.80153 
L 547.690909 172.644592 
L 552.763636 170.487653 
L 557.836364 168.330715 
L 562.909091 166.173776 
L 567.981818 164.016838 
L 573.054545 161.859899 
L 578.127273 159.702961 
L 583.2 157.546022 
" clip-path="url(#p2624af1722)" style="fill: none; stroke: #ff7f0e; stroke-opacity: 0.7; stroke-width: 2; stroke-linecap: square"/>
   </g>
   <g id="line2d_29">
    <path d="M 81 397.313566 
L 86.072727 393.862465 
L 91.145455 390.411363 
L 96.218182 386.960261 
L 101.290909 383.50916 
L 106.363636 380.058058 
L 111.436364 376.606957 
L 116.509091 373.155855 
L 121.581818 369.704753 
L 126.654545 366.253652 
L 131.727273 362.80255 
L 136.8 359.351448 
L 141.872727 355.900347 
L 146.945455 352.449245 
L 152.018182 348.998144 
L 157.090909 345.547042 
L 162.163636 342.09594 
L 167.236364 338.644839 
L 172.309091 335.193737 
L 177.381818 331.742636 
L 182.454545 328.291534 
L 187.527273 324.840432 
L 192.6 321.389331 
L 197.672727 317.938229 
L 202.745455 314.487128 
L 207.818182 311.036026 
L 212.890909 307.584924 
L 217.963636 304.133823 
L 223.036364 300.682721 
L 228.109091 297.23162 
L 233.181818 293.780518 
L 238.254545 290.329416 
L 243.327273 286.878315 
L 248.4 283.427213 
L 253.472727 279.976112 
L 258.545455 276.52501 
L 263.618182 273.073908 
L 268.690909 269.622807 
L 273.763636 266.171705 
L 278.836364 262.720603 
L 283.909091 259.269502 
L 288.981818 255.8184 
L 294.054545 252.367299 
L 299.127273 248.916197 
L 304.2 245.465095 
L 309.272727 242.013994 
L 314.345455 238.562892 
L 319.418182 235.111791 
L 324.490909 231.660689 
L 329.563636 228.209587 
L 334.636364 224.758486 
L 339.709091 221.307384 
L 344.781818 217.856283 
L 349.854545 214.405181 
L 354.927273 210.954079 
L 360 207.502978 
L 365.072727 204.051876 
L 370.145455 200.600775 
L 375.218182 197.149673 
L 380.290909 193.698571 
L 385.363636 190.24747 
L 390.436364 186.796368 
L 395.509091 183.345266 
L 400.581818 179.894165 
L 405.654545 176.443063 
L 410.727273 172.991962 
L 415.8 169.54086 
L 420.872727 166.089758 
L 425.945455 162.638657 
L 431.018182 159.187555 
L 436.090909 155.736454 
L 441.163636 152.285352 
L 446.236364 148.83425 
L 451.309091 145.383149 
L 456.381818 141.932047 
L 461.454545 138.480946 
L 466.527273 135.029844 
L 471.6 131.578742 
L 476.672727 128.127641 
L 481.745455 124.676539 
L 486.818182 121.225438 
L 491.890909 117.774336 
L 496.963636 114.323234 
L 502.036364 110.872133 
L 507.109091 107.421031 
L 512.181818 103.96993 
L 517.254545 100.518828 
L 522.327273 97.067726 
L 527.4 93.616625 
L 532.472727 90.165523 
L 537.545455 86.714421 
L 542.618182 83.26332 
L 547.690909 79.812218 
L 552.763636 76.361117 
L 557.836364 72.910015 
L 562.909091 69.458913 
L 567.981818 66.007812 
L 573.054545 62.55671 
L 578.127273 59.105609 
L 583.2 55.654507 
" clip-path="url(#p2624af1722)" style="fill: none; stroke: #2ca02c; stroke-opacity: 0.7; stroke-width: 2; stroke-linecap: square"/>
   </g>
   <g id="patch_3">
    <path d="M 81 448.56 
L 81 60.48 
" style="fill: none; stroke: #000000; stroke-width: 0.8; stroke-linejoin: miter; stroke-linecap: square"/>
   </g>
   <g id="patch_4">
    <path d="M 583.2 448.56 
L 583.2 60.48 
" style="fill: none; stroke: #000000; stroke-width: 0.8; stroke-linejoin: miter; stroke-linecap: square"/>
   </g>
   <g id="patch_5">
    <path d="M 81 448.56 
L 583.2 448.56 
" style="fill: none; stroke: #000000; stroke-width: 0.8; stroke-linejoin: miter; stroke-linecap: square"/>
   </g>
   <g id="patch_6">
    <path d="M 81 60.48 
L 583.2 60.48 
" style="fill: none; stroke: #000000; stroke-width: 0.8; stroke-linejoin: miter; stroke-linecap: square"/>
   </g>
   <g id="legend_1">
    <g id="patch_7">
     <path d="M 504.74375 97.83625 
L 576.2 97.83625 
Q 578.2 97.83625 578.2 95.83625 
L 578.2 67.48 
Q 578.2 65.48 576.2 65.48 
L 504.74375 65.48 
Q 502.74375 65.48 502.74375 67.48 
L 502.74375 95.83625 
Q 502.74375 97.83625 504.74375 97.83625 
z
" style="fill: #ffffff; opacity: 0.8; stroke: #cccccc; stroke-linejoin: miter"/>
    </g>
    <g id="PathCollection_3">
     <g>
      <use xlink:href="#m7880e27b91" x="516.74375" y="74.453438" style="fill: #0000ff; stroke: #000000"/>
     </g>
    </g>
    <g id="text_16">
     <!-- Class -1 -->
     <g transform="translate(534.74375 77.078438) scale(0.1 -0.1)">
      <defs>
       <path id="DejaVuSans-43" d="M 4122 4306 
L 4122 3641 
Q 3803 3938 3442 4084 
Q 3081 4231 2675 4231 
Q 1875 4231 1450 3742 
Q 1025 3253 1025 2328 
Q 1025 1406 1450 917 
Q 1875 428 2675 428 
Q 3081 428 3442 575 
Q 3803 722 4122 1019 
L 4122 359 
Q 3791 134 3420 21 
Q 3050 -91 2638 -91 
Q 1578 -91 968 557 
Q 359 1206 359 2328 
Q 359 3453 968 4101 
Q 1578 4750 2638 4750 
Q 3056 4750 3426 4639 
Q 3797 4528 4122 4306 
z
" transform="scale(0.015625)"/>
       <path id="DejaVuSans-6c" d="M 603 4863 
L 1178 4863 
L 1178 0 
L 603 0 
L 603 4863 
z
" transform="scale(0.015625)"/>
       <path id="DejaVuSans-61" d="M 2194 1759 
Q 1497 1759 1228 1600 
Q 959 1441 959 1056 
Q 959 750 1161 570 
Q 1363 391 1709 391 
Q 2188 391 2477 730 
Q 2766 1069 2766 1631 
L 2766 1759 
L 2194 1759 
z
M 3341 1997 
L 3341 0 
L 2766 0 
L 2766 531 
Q 2569 213 2275 61 
Q 1981 -91 1556 -91 
Q 1019 -91 701 211 
Q 384 513 384 1019 
Q 384 1609 779 1909 
Q 1175 2209 1959 2209 
L 2766 2209 
L 2766 2266 
Q 2766 2663 2505 2880 
Q 2244 3097 1772 3097 
Q 1472 3097 1187 3025 
Q 903 2953 641 2809 
L 641 3341 
Q 956 3463 1253 3523 
Q 1550 3584 1831 3584 
Q 2591 3584 2966 3190 
Q 3341 2797 3341 1997 
z
" transform="scale(0.015625)"/>
       <path id="DejaVuSans-73" d="M 2834 3397 
L 2834 2853 
Q 2591 2978 2328 3040 
Q 2066 3103 1784 3103 
Q 1356 3103 1142 2972 
Q 928 2841 928 2578 
Q 928 2378 1081 2264 
Q 1234 2150 1697 2047 
L 1894 2003 
Q 2506 1872 2764 1633 
Q 3022 1394 3022 966 
Q 3022 478 2636 193 
Q 2250 -91 1575 -91 
Q 1294 -91 989 -36 
Q 684 19 347 128 
L 347 722 
Q 666 556 975 473 
Q 1284 391 1588 391 
Q 1994 391 2212 530 
Q 2431 669 2431 922 
Q 2431 1156 2273 1281 
Q 2116 1406 1581 1522 
L 1381 1569 
Q 847 1681 609 1914 
Q 372 2147 372 2553 
Q 372 3047 722 3315 
Q 1072 3584 1716 3584 
Q 2034 3584 2315 3537 
Q 2597 3491 2834 3397 
z
" transform="scale(0.015625)"/>
       <path id="DejaVuSans-20" transform="scale(0.015625)"/>
       <path id="DejaVuSans-2d" d="M 313 2009 
L 1997 2009 
L 1997 1497 
L 313 1497 
L 313 2009 
z
" transform="scale(0.015625)"/>
      </defs>
      <use xlink:href="#DejaVuSans-43"/>
      <use xlink:href="#DejaVuSans-6c" transform="translate(69.824219 0)"/>
      <use xlink:href="#DejaVuSans-61" transform="translate(97.607422 0)"/>
      <use xlink:href="#DejaVuSans-73" transform="translate(158.886719 0)"/>
      <use xlink:href="#DejaVuSans-73" transform="translate(210.986328 0)"/>
      <use xlink:href="#DejaVuSans-20" transform="translate(263.085938 0)"/>
      <use xlink:href="#DejaVuSans-2d" transform="translate(294.873047 0)"/>
      <use xlink:href="#DejaVuSans-31" transform="translate(330.957031 0)"/>
     </g>
    </g>
    <g id="PathCollection_4">
     <g>
      <use xlink:href="#m71b09ac527" x="516.74375" y="89.131563" style="fill: #ff0000; stroke: #000000"/>
     </g>
    </g>
    <g id="text_17">
     <!-- Class 1 -->
     <g transform="translate(534.74375 91.756563) scale(0.1 -0.1)">
      <use xlink:href="#DejaVuSans-43"/>
      <use xlink:href="#DejaVuSans-6c" transform="translate(69.824219 0)"/>
      <use xlink:href="#DejaVuSans-61" transform="translate(97.607422 0)"/>
      <use xlink:href="#DejaVuSans-73" transform="translate(158.886719 0)"/>
      <use xlink:href="#DejaVuSans-73" transform="translate(210.986328 0)"/>
      <use xlink:href="#DejaVuSans-20" transform="translate(263.085938 0)"/>
      <use xlink:href="#DejaVuSans-31" transform="translate(294.873047 0)"/>
     </g>
    </g>
   </g>
  </g>
 </g>
 <defs>
  <clipPath id="p2624af1722">
   <rect x="81" y="60.48" width="502.2" height="388.08"/>
  </clipPath>
 </defs>
</svg>
