<?xml version="1.0" standalone="no"?>
<!DOCTYPE svg PUBLIC "-//W3C//DTD SVG 20010904//EN"
 "http://www.w3.org/TR/2001/REC-SVG-20010904/DTD/svg10.dtd">
<svg version="1.0" xmlns="http://www.w3.org/2000/svg"
 width="429.000000pt" height="429.000000pt" viewBox="0 0 429.000000 429.000000"
 preserveAspectRatio="xMidYMid meet">
<metadata>
Created by potrace 1.11, written by Peter Selinger 2001-2013
</metadata>
<g transform="translate(0.000000,429.000000) scale(0.100000,-0.100000)"
fill="#000000" stroke="none">
<path d="M1858 4194 c-2 -1 -30 -5 -63 -9 -33 -4 -71 -8 -85 -10 -14 -2 -47
-7 -75 -10 -232 -30 -534 -142 -718 -267 -187 -127 -397 -347 -540 -568 -160
-247 -287 -594 -333 -912 -3 -20 -12 -65 -19 -100 -22 -105 -14 -187 28 -272
20 -40 55 -96 78 -124 l41 -52 -27 -10 c-14 -5 -32 -10 -40 -10 -67 0 -97 -98
-55 -179 18 -37 49 -69 99 -101 l22 -15 -36 -60 c-50 -84 -67 -145 -70 -255
-3 -138 28 -376 60 -462 72 -187 374 -408 715 -521 111 -37 329 -93 394 -101
21 -3 46 -8 55 -10 33 -10 340 -46 456 -53 157 -10 610 -10 750 0 496 34 968
165 1235 343 123 82 210 178 270 299 65 131 83 214 84 400 1 166 -4 219 -29
301 -8 27 -15 50 -15 51 0 1 14 -2 32 -7 52 -15 77 -2 117 60 80 124 116 302
84 416 -20 71 -85 142 -148 162 l-40 14 0 166 c0 92 -3 188 -8 214 -17 106
-77 307 -116 393 -5 11 -24 52 -42 90 -76 166 -202 363 -349 549 -99 125 -171
197 -280 278 -96 72 -120 86 -265 157 -204 100 -431 166 -675 196 -25 3 -63 8
-85 11 -40 6 -402 13 -407 8z"/>
</g>
</svg>
